<?xml version="1.0" encoding="UTF-8" standalone="no"?><svg xmlns="http://www.w3.org/2000/svg" xmlns:xlink="http://www.w3.org/1999/xlink" contentScriptType="application/ecmascript" contentStyleType="text/css" height="232px" preserveAspectRatio="none" style="width:443px;height:232px;" version="1.1" viewBox="0 0 443 232" width="443px" zoomAndPan="magnify"><defs><filter height="300%" id="f18cg3rfe25vkc" width="300%" x="-1" y="-1"><feGaussianBlur result="blurOut" stdDeviation="2.0"/><feColorMatrix in="blurOut" result="blurOut2" type="matrix" values="0 0 0 0 0 0 0 0 0 0 0 0 0 0 0 0 0 0 .4 0"/><feOffset dx="4.0" dy="4.0" in="blurOut2" result="blurOut3"/><feBlend in="SourceGraphic" in2="blurOut3" mode="normal"/></filter></defs><g><!--MD5=[33d02538fd65f2fdf94b5f6e76e10b6a]
cluster nz.ac.vuw.ecs.swen225.gp23.persistence--><polygon fill="#FFFFFF" filter="url(#f18cg3rfe25vkc)" points="16,6,311,6,318,29.6094,421,29.6094,421,203,16,203,16,6" style="stroke: #000000; stroke-width: 1.5;"/><line style="stroke: #000000; stroke-width: 1.5;" x1="16" x2="318" y1="29.6094" y2="29.6094"/><text fill="#000000" font-family="sans-serif" font-size="14" font-weight="bold" lengthAdjust="spacingAndGlyphs" textLength="289" x="20" y="22.5332">nz.ac.vuw.ecs.swen225.gp23.persistence</text><!--MD5=[1bb9f5c767c042d9c7a98753bbed0266]
class nz.ac.vuw.ecs.swen225.gp23.persistence.LevelM--><a href="LevelM.html" target="_top" title="LevelM.html" xlink:actuate="onRequest" xlink:href="LevelM.html" xlink:show="new" xlink:title="LevelM.html" xlink:type="simple"><rect codeLine="3" fill="#FEFECE" filter="url(#f18cg3rfe25vkc)" height="131.0156" id="nz.ac.vuw.ecs.swen225.gp23.persistence.LevelM" style="stroke: #A80036; stroke-width: 1.5;" width="176" x="229" y="49"/><ellipse cx="293.75" cy="65" fill="#ADD1B2" rx="11" ry="11" style="stroke: #A80036; stroke-width: 1.0;"/><path d="M296.5156,60.875 Q296.6719,60.6563 296.8594,60.5469 Q297.0469,60.4375 297.2656,60.4375 Q297.6406,60.4375 297.875,60.7031 Q298.1094,60.9531 298.1094,61.5625 L298.1094,63.0156 Q298.1094,63.625 297.875,63.8906 Q297.6406,64.1563 297.2656,64.1563 Q296.9219,64.1563 296.7188,63.9531 Q296.5156,63.7656 296.4063,63.25 Q296.3594,62.8906 296.1719,62.7031 Q295.8438,62.3281 295.2344,62.1094 Q294.625,61.8906 294,61.8906 Q293.2344,61.8906 292.5938,62.2188 Q291.9688,62.5469 291.4688,63.2969 Q290.9844,64.0469 290.9844,65.0781 L290.9844,66.1719 Q290.9844,67.4063 291.875,68.2344 Q292.7656,69.0469 294.3594,69.0469 Q295.2969,69.0469 295.9531,68.7969 Q296.3438,68.6406 296.7656,68.2031 Q297.0313,67.9375 297.1719,67.8594 Q297.3281,67.7813 297.5313,67.7813 Q297.8594,67.7813 298.1094,68.0469 Q298.375,68.2969 298.375,68.6406 Q298.375,68.9844 298.0313,69.3906 Q297.5313,69.9688 296.7344,70.2969 Q295.6563,70.75 294.3594,70.75 Q292.8438,70.75 291.6406,70.125 Q290.6563,69.625 289.9688,68.5625 Q289.2813,67.4844 289.2813,66.2031 L289.2813,65.0469 Q289.2813,63.7188 289.8906,62.5781 Q290.5156,61.4219 291.6094,60.8125 Q292.7031,60.1875 293.9375,60.1875 Q294.6719,60.1875 295.3125,60.3594 Q295.9688,60.5156 296.5156,60.875 Z "/><text fill="#000000" font-family="sans-serif" font-size="12" lengthAdjust="spacingAndGlyphs" textLength="38" x="314.25" y="69.9102">LevelM</text><line style="stroke: #A80036; stroke-width: 1.5;" x1="230" x2="404" y1="81" y2="81"/><line style="stroke: #A80036; stroke-width: 1.5;" x1="230" x2="404" y1="89" y2="89"/><ellipse cx="240" cy="100" fill="#84BE84" rx="3" ry="3" style="stroke: #038048; stroke-width: 1.0;"/><text fill="#000000" font-family="sans-serif" font-size="11" lengthAdjust="spacingAndGlyphs" textLength="98" x="249" y="104.4189">loadFile(String): void</text><ellipse cx="240" cy="113.8359" fill="#84BE84" rx="3" ry="3" style="stroke: #038048; stroke-width: 1.0;"/><text fill="#000000" font-family="sans-serif" font-size="11" lengthAdjust="spacingAndGlyphs" textLength="84" x="249" y="118.2549">saveLevel(): void</text><ellipse cx="240" cy="127.6719" fill="#84BE84" rx="3" ry="3" style="stroke: #038048; stroke-width: 1.0;"/><text fill="#000000" font-family="sans-serif" font-size="11" lengthAdjust="spacingAndGlyphs" textLength="86" x="249" y="132.0908">setLevel(int): void</text><ellipse cx="240" cy="141.5078" fill="#84BE84" rx="3" ry="3" style="stroke: #038048; stroke-width: 1.0;"/><text fill="#000000" font-family="sans-serif" font-size="11" lengthAdjust="spacingAndGlyphs" textLength="107" x="249" y="145.9268">incrementLevel(): void</text><ellipse cx="240" cy="155.3438" fill="#84BE84" rx="3" ry="3" style="stroke: #038048; stroke-width: 1.0;"/><text fill="#000000" font-family="sans-serif" font-size="11" lengthAdjust="spacingAndGlyphs" textLength="119" x="249" y="159.7627">getCurrentLevel(): String</text><ellipse cx="240" cy="169.1797" fill="#84BE84" rx="3" ry="3" style="stroke: #038048; stroke-width: 1.0;"/><text fill="#000000" font-family="sans-serif" font-size="11" lengthAdjust="spacingAndGlyphs" textLength="150" x="249" y="173.5986">checkMaximumState(): boolean</text></a><!--MD5=[3220fe52b520dc5b9298cdbedd34103d]
class nz.ac.vuw.ecs.swen225.gp23.persistence.Persistence--><a href="Persistence.html" target="_top" title="Persistence.html" xlink:actuate="onRequest" xlink:href="Persistence.html" xlink:show="new" xlink:title="Persistence.html" xlink:type="simple"><rect codeLine="12" fill="#FEFECE" filter="url(#f18cg3rfe25vkc)" height="144.8516" id="nz.ac.vuw.ecs.swen225.gp23.persistence.Persistence" style="stroke: #A80036; stroke-width: 1.5;" width="162" x="32" y="42"/><ellipse cx="75.8" cy="58" fill="#ADD1B2" rx="11" ry="11" style="stroke: #A80036; stroke-width: 1.0;"/><path d="M78.5656,53.875 Q78.7219,53.6563 78.9094,53.5469 Q79.0969,53.4375 79.3156,53.4375 Q79.6906,53.4375 79.925,53.7031 Q80.1594,53.9531 80.1594,54.5625 L80.1594,56.0156 Q80.1594,56.625 79.925,56.8906 Q79.6906,57.1563 79.3156,57.1563 Q78.9719,57.1563 78.7688,56.9531 Q78.5656,56.7656 78.4563,56.25 Q78.4094,55.8906 78.2219,55.7031 Q77.8938,55.3281 77.2844,55.1094 Q76.675,54.8906 76.05,54.8906 Q75.2844,54.8906 74.6438,55.2188 Q74.0188,55.5469 73.5188,56.2969 Q73.0344,57.0469 73.0344,58.0781 L73.0344,59.1719 Q73.0344,60.4063 73.925,61.2344 Q74.8156,62.0469 76.4094,62.0469 Q77.3469,62.0469 78.0031,61.7969 Q78.3938,61.6406 78.8156,61.2031 Q79.0813,60.9375 79.2219,60.8594 Q79.3781,60.7813 79.5813,60.7813 Q79.9094,60.7813 80.1594,61.0469 Q80.425,61.2969 80.425,61.6406 Q80.425,61.9844 80.0813,62.3906 Q79.5813,62.9688 78.7844,63.2969 Q77.7063,63.75 76.4094,63.75 Q74.8938,63.75 73.6906,63.125 Q72.7063,62.625 72.0188,61.5625 Q71.3313,60.4844 71.3313,59.2031 L71.3313,58.0469 Q71.3313,56.7188 71.9406,55.5781 Q72.5656,54.4219 73.6594,53.8125 Q74.7531,53.1875 75.9875,53.1875 Q76.7219,53.1875 77.3625,53.3594 Q78.0188,53.5156 78.5656,53.875 Z "/><text fill="#000000" font-family="sans-serif" font-size="12" lengthAdjust="spacingAndGlyphs" textLength="66" x="96.2" y="62.9102">Persistence</text><line style="stroke: #A80036; stroke-width: 1.5;" x1="33" x2="193" y1="74" y2="74"/><line style="stroke: #A80036; stroke-width: 1.5;" x1="33" x2="193" y1="82" y2="82"/><ellipse cx="43" cy="93" fill="#84BE84" rx="3" ry="3" style="stroke: #038048; stroke-width: 1.0;"/><text fill="#000000" font-family="sans-serif" font-size="11" lengthAdjust="spacingAndGlyphs" text-decoration="underline" textLength="107" x="52" y="97.4189">loadFile(String): Board</text><ellipse cx="43" cy="106.8359" fill="#84BE84" rx="3" ry="3" style="stroke: #038048; stroke-width: 1.0;"/><text fill="#000000" font-family="sans-serif" font-size="11" lengthAdjust="spacingAndGlyphs" text-decoration="underline" textLength="136" x="52" y="111.2549">saveFile(Game, String): void</text><ellipse cx="43" cy="120.6719" fill="#84BE84" rx="3" ry="3" style="stroke: #038048; stroke-width: 1.0;"/><text fill="#000000" font-family="sans-serif" font-size="11" lengthAdjust="spacingAndGlyphs" text-decoration="underline" textLength="121" x="52" y="125.0908">gameState(Game): String</text><ellipse cx="43" cy="134.5078" fill="#84BE84" rx="3" ry="3" style="stroke: #038048; stroke-width: 1.0;"/><text fill="#000000" font-family="sans-serif" font-size="11" lengthAdjust="spacingAndGlyphs" text-decoration="underline" textLength="122" x="52" y="138.9268">readBoard(String): Board</text><ellipse cx="43" cy="148.3438" fill="#84BE84" rx="3" ry="3" style="stroke: #038048; stroke-width: 1.0;"/><text fill="#000000" font-family="sans-serif" font-size="11" lengthAdjust="spacingAndGlyphs" text-decoration="underline" textLength="131" x="52" y="152.7627">setInventory(): List&lt;String&gt;</text><ellipse cx="43" cy="162.1797" fill="#84BE84" rx="3" ry="3" style="stroke: #038048; stroke-width: 1.0;"/><text fill="#000000" font-family="sans-serif" font-size="11" lengthAdjust="spacingAndGlyphs" text-decoration="underline" textLength="81" x="52" y="166.5986">getTimeLeft(): int</text><ellipse cx="43" cy="176.0156" fill="#84BE84" rx="3" ry="3" style="stroke: #038048; stroke-width: 1.0;"/><text fill="#000000" font-family="sans-serif" font-size="11" lengthAdjust="spacingAndGlyphs" text-decoration="underline" textLength="66" x="52" y="180.4346">getLevel(): int</text></a><text fill="#888888" font-family="sans-serif" font-size="10" lengthAdjust="spacingAndGlyphs" textLength="190" x="117.5" y="219.3809">UMLDoclet 2.0.12, PlantUML 1.2020.16</text><!--MD5=[e05bc2bea3e3d565c80bee66d839f44e]
@startuml
    namespace nz.ac.vuw.ecs.swen225.gp23.persistence {

        class LevelM [[LevelM.html]] {
            +loadFile(String): void
            +saveLevel(): void
            +setLevel(int): void
            +incrementLevel(): void
            +getCurrentLevel(): String
            +checkMaximumState(): boolean
        }

        class Persistence [[Persistence.html]] {
            {static} +loadFile(String): Board
            {static} +saveFile(Game, String): void
            {static} +gameState(Game): String
            {static} +readBoard(String): Board
            {static} +setInventory(): List<String>
            {static} +getTimeLeft(): int
            {static} +getLevel(): int
        }

    }

    center footer UMLDoclet 2.0.12, PlantUML 1.2020.16
@enduml

PlantUML version 1.2020.16(Mon Aug 24 08:20:43 NZST 2020)
(APACHE source distribution)
Java Runtime: Java(TM) SE Runtime Environment
JVM: Java HotSpot(TM) 64-Bit Server VM
Default Encoding: Cp1252
Language: en
Country: NZ
--></g></svg>