<?xml version="1.0" encoding="UTF-8" standalone="no"?><svg xmlns="http://www.w3.org/2000/svg" xmlns:xlink="http://www.w3.org/1999/xlink" contentScriptType="application/ecmascript" contentStyleType="text/css" height="478px" preserveAspectRatio="none" style="width:849px;height:478px;" version="1.1" viewBox="0 0 849 478" width="849px" zoomAndPan="magnify"><defs><filter height="300%" id="fgu61r79t3v6u" width="300%" x="-1" y="-1"><feGaussianBlur result="blurOut" stdDeviation="2.0"/><feColorMatrix in="blurOut" result="blurOut2" type="matrix" values="0 0 0 0 0 0 0 0 0 0 0 0 0 0 0 0 0 0 .4 0"/><feOffset dx="4.0" dy="4.0" in="blurOut2" result="blurOut3"/><feBlend in="SourceGraphic" in2="blurOut3" mode="normal"/></filter></defs><g><!--MD5=[524d6f61fccc70e5b6b9b1ea2ef91df3]
cluster nz.ac.vuw.ecs.swen225.gp23.render--><polygon fill="#FFFFFF" filter="url(#fgu61r79t3v6u)" points="16,130,275,130,282,153.6094,827,153.6094,827,449,16,449,16,130" style="stroke: #000000; stroke-width: 1.5;"/><line style="stroke: #000000; stroke-width: 1.5;" x1="16" x2="282" y1="153.6094" y2="153.6094"/><text fill="#000000" font-family="sans-serif" font-size="14" font-weight="bold" lengthAdjust="spacingAndGlyphs" textLength="253" x="20" y="146.5332">nz.ac.vuw.ecs.swen225.gp23.render</text><!--MD5=[535aab4de90d4dfa371a9b40d5438fc3]
cluster javax.swing--><polygon fill="#FFFFFF" filter="url(#fgu61r79t3v6u)" points="164,6,252,6,259,29.6094,266,29.6094,266,106,164,106,164,6" style="stroke: #000000; stroke-width: 1.5;"/><line style="stroke: #000000; stroke-width: 1.5;" x1="164" x2="259" y1="29.6094" y2="29.6094"/><text fill="#000000" font-family="sans-serif" font-size="14" font-weight="bold" lengthAdjust="spacingAndGlyphs" textLength="82" x="168" y="22.5332">javax.swing</text><!--MD5=[fc339f9fa0fb860acb4c115805a31796]
class nz.ac.vuw.ecs.swen225.gp23.render.TileFinder--><a href="TileFinder.html" target="_top" title="TileFinder.html" xlink:actuate="onRequest" xlink:href="TileFinder.html" xlink:show="new" xlink:title="TileFinder.html" xlink:type="simple"><rect codeLine="3" fill="#FEFECE" filter="url(#fgu61r79t3v6u)" height="61.8359" id="nz.ac.vuw.ecs.swen225.gp23.render.TileFinder" style="stroke: #A80036; stroke-width: 1.5;" width="164" x="647" y="200.5"/><ellipse cx="697.25" cy="216.5" fill="#ADD1B2" rx="11" ry="11" style="stroke: #A80036; stroke-width: 1.0;"/><path d="M700.0156,212.375 Q700.1719,212.1563 700.3594,212.0469 Q700.5469,211.9375 700.7656,211.9375 Q701.1406,211.9375 701.375,212.2031 Q701.6094,212.4531 701.6094,213.0625 L701.6094,214.5156 Q701.6094,215.125 701.375,215.3906 Q701.1406,215.6563 700.7656,215.6563 Q700.4219,215.6563 700.2188,215.4531 Q700.0156,215.2656 699.9063,214.75 Q699.8594,214.3906 699.6719,214.2031 Q699.3438,213.8281 698.7344,213.6094 Q698.125,213.3906 697.5,213.3906 Q696.7344,213.3906 696.0938,213.7188 Q695.4688,214.0469 694.9688,214.7969 Q694.4844,215.5469 694.4844,216.5781 L694.4844,217.6719 Q694.4844,218.9063 695.375,219.7344 Q696.2656,220.5469 697.8594,220.5469 Q698.7969,220.5469 699.4531,220.2969 Q699.8438,220.1406 700.2656,219.7031 Q700.5313,219.4375 700.6719,219.3594 Q700.8281,219.2813 701.0313,219.2813 Q701.3594,219.2813 701.6094,219.5469 Q701.875,219.7969 701.875,220.1406 Q701.875,220.4844 701.5313,220.8906 Q701.0313,221.4688 700.2344,221.7969 Q699.1563,222.25 697.8594,222.25 Q696.3438,222.25 695.1406,221.625 Q694.1563,221.125 693.4688,220.0625 Q692.7813,218.9844 692.7813,217.7031 L692.7813,216.5469 Q692.7813,215.2188 693.3906,214.0781 Q694.0156,212.9219 695.1094,212.3125 Q696.2031,211.6875 697.4375,211.6875 Q698.1719,211.6875 698.8125,211.8594 Q699.4688,212.0156 700.0156,212.375 Z "/><text fill="#000000" font-family="sans-serif" font-size="12" lengthAdjust="spacingAndGlyphs" textLength="55" x="717.75" y="221.4102">TileFinder</text><line style="stroke: #A80036; stroke-width: 1.5;" x1="648" x2="810" y1="232.5" y2="232.5"/><line style="stroke: #A80036; stroke-width: 1.5;" x1="648" x2="810" y1="240.5" y2="240.5"/><ellipse cx="658" cy="251.5" fill="#84BE84" rx="3" ry="3" style="stroke: #038048; stroke-width: 1.0;"/><text fill="#000000" font-family="sans-serif" font-size="11" lengthAdjust="spacingAndGlyphs" text-decoration="underline" textLength="138" x="667" y="255.9189">getTile(String, int): ImageIcon</text></a><!--MD5=[b410eea1fb428faf0359eed96289d581]
class nz.ac.vuw.ecs.swen225.gp23.render.ChipAudioModule--><a href="ChipAudioModule.html" target="_top" title="ChipAudioModule.html" xlink:actuate="onRequest" xlink:href="ChipAudioModule.html" xlink:show="new" xlink:title="ChipAudioModule.html" xlink:type="simple"><rect codeLine="7" fill="#FEFECE" filter="url(#fgu61r79t3v6u)" height="75.6719" id="nz.ac.vuw.ecs.swen225.gp23.render.ChipAudioModule" style="stroke: #A80036; stroke-width: 1.5;" width="180" x="427" y="357"/><ellipse cx="464.95" cy="373" fill="#ADD1B2" rx="11" ry="11" style="stroke: #A80036; stroke-width: 1.0;"/><path d="M467.7156,368.875 Q467.8719,368.6563 468.0594,368.5469 Q468.2469,368.4375 468.4656,368.4375 Q468.8406,368.4375 469.075,368.7031 Q469.3094,368.9531 469.3094,369.5625 L469.3094,371.0156 Q469.3094,371.625 469.075,371.8906 Q468.8406,372.1563 468.4656,372.1563 Q468.1219,372.1563 467.9188,371.9531 Q467.7156,371.7656 467.6063,371.25 Q467.5594,370.8906 467.3719,370.7031 Q467.0438,370.3281 466.4344,370.1094 Q465.825,369.8906 465.2,369.8906 Q464.4344,369.8906 463.7938,370.2188 Q463.1688,370.5469 462.6688,371.2969 Q462.1844,372.0469 462.1844,373.0781 L462.1844,374.1719 Q462.1844,375.4063 463.075,376.2344 Q463.9656,377.0469 465.5594,377.0469 Q466.4969,377.0469 467.1531,376.7969 Q467.5438,376.6406 467.9656,376.2031 Q468.2313,375.9375 468.3719,375.8594 Q468.5281,375.7813 468.7313,375.7813 Q469.0594,375.7813 469.3094,376.0469 Q469.575,376.2969 469.575,376.6406 Q469.575,376.9844 469.2313,377.3906 Q468.7313,377.9688 467.9344,378.2969 Q466.8563,378.75 465.5594,378.75 Q464.0438,378.75 462.8406,378.125 Q461.8563,377.625 461.1688,376.5625 Q460.4813,375.4844 460.4813,374.2031 L460.4813,373.0469 Q460.4813,371.7188 461.0906,370.5781 Q461.7156,369.4219 462.8094,368.8125 Q463.9031,368.1875 465.1375,368.1875 Q465.8719,368.1875 466.5125,368.3594 Q467.1688,368.5156 467.7156,368.875 Z "/><text fill="#000000" font-family="sans-serif" font-size="12" lengthAdjust="spacingAndGlyphs" textLength="97" x="484.05" y="377.9102">ChipAudioModule</text><line style="stroke: #A80036; stroke-width: 1.5;" x1="428" x2="606" y1="389" y2="389"/><line style="stroke: #A80036; stroke-width: 1.5;" x1="428" x2="606" y1="397" y2="397"/><ellipse cx="438" cy="408" fill="#84BE84" rx="3" ry="3" style="stroke: #038048; stroke-width: 1.0;"/><text fill="#000000" font-family="sans-serif" font-size="11" lengthAdjust="spacingAndGlyphs" textLength="154" x="447" y="412.4189">playCurrentLevelTrack(int): void</text><ellipse cx="438" cy="421.8359" fill="#84BE84" rx="3" ry="3" style="stroke: #038048; stroke-width: 1.0;"/><text fill="#000000" font-family="sans-serif" font-size="11" lengthAdjust="spacingAndGlyphs" textLength="89" x="447" y="426.2549">moveEffect(): void</text></a><!--MD5=[791f345d0834386075557a1ff1f01489]
class nz.ac.vuw.ecs.swen225.gp23.render.AudioModule--><a href="AudioModule.html" target="_top" title="AudioModule.html" xlink:actuate="onRequest" xlink:href="AudioModule.html" xlink:show="new" xlink:title="AudioModule.html" xlink:type="simple"><rect codeLine="12" fill="#FEFECE" filter="url(#fgu61r79t3v6u)" height="131.0156" id="nz.ac.vuw.ecs.swen225.gp23.render.AudioModule" style="stroke: #A80036; stroke-width: 1.5;" width="189" x="422.5" y="166"/><ellipse cx="477.25" cy="182" fill="#ADD1B2" rx="11" ry="11" style="stroke: #A80036; stroke-width: 1.0;"/><path d="M480.0156,177.875 Q480.1719,177.6563 480.3594,177.5469 Q480.5469,177.4375 480.7656,177.4375 Q481.1406,177.4375 481.375,177.7031 Q481.6094,177.9531 481.6094,178.5625 L481.6094,180.0156 Q481.6094,180.625 481.375,180.8906 Q481.1406,181.1563 480.7656,181.1563 Q480.4219,181.1563 480.2188,180.9531 Q480.0156,180.7656 479.9063,180.25 Q479.8594,179.8906 479.6719,179.7031 Q479.3438,179.3281 478.7344,179.1094 Q478.125,178.8906 477.5,178.8906 Q476.7344,178.8906 476.0938,179.2188 Q475.4688,179.5469 474.9688,180.2969 Q474.4844,181.0469 474.4844,182.0781 L474.4844,183.1719 Q474.4844,184.4063 475.375,185.2344 Q476.2656,186.0469 477.8594,186.0469 Q478.7969,186.0469 479.4531,185.7969 Q479.8438,185.6406 480.2656,185.2031 Q480.5313,184.9375 480.6719,184.8594 Q480.8281,184.7813 481.0313,184.7813 Q481.3594,184.7813 481.6094,185.0469 Q481.875,185.2969 481.875,185.6406 Q481.875,185.9844 481.5313,186.3906 Q481.0313,186.9688 480.2344,187.2969 Q479.1563,187.75 477.8594,187.75 Q476.3438,187.75 475.1406,187.125 Q474.1563,186.625 473.4688,185.5625 Q472.7813,184.4844 472.7813,183.2031 L472.7813,182.0469 Q472.7813,180.7188 473.3906,179.5781 Q474.0156,178.4219 475.1094,177.8125 Q476.2031,177.1875 477.4375,177.1875 Q478.1719,177.1875 478.8125,177.3594 Q479.4688,177.5156 480.0156,177.875 Z "/><text fill="#000000" font-family="sans-serif" font-size="12" lengthAdjust="spacingAndGlyphs" textLength="71" x="497.75" y="186.9102">AudioModule</text><line style="stroke: #A80036; stroke-width: 1.5;" x1="423.5" x2="610.5" y1="198" y2="198"/><line style="stroke: #A80036; stroke-width: 1.5;" x1="423.5" x2="610.5" y1="206" y2="206"/><ellipse cx="433.5" cy="217" fill="#84BE84" rx="3" ry="3" style="stroke: #038048; stroke-width: 1.0;"/><text fill="#000000" font-family="sans-serif" font-size="11" lengthAdjust="spacingAndGlyphs" text-decoration="underline" textLength="163" x="442.5" y="221.4189">playSoundTrack(Clip, String): void</text><ellipse cx="433.5" cy="230.8359" fill="#84BE84" rx="3" ry="3" style="stroke: #038048; stroke-width: 1.0;"/><text fill="#000000" font-family="sans-serif" font-size="11" lengthAdjust="spacingAndGlyphs" text-decoration="underline" textLength="136" x="442.5" y="235.2549">playSound(Clip, String): void</text><ellipse cx="433.5" cy="244.6719" fill="#84BE84" rx="3" ry="3" style="stroke: #038048; stroke-width: 1.0;"/><text fill="#000000" font-family="sans-serif" font-size="11" lengthAdjust="spacingAndGlyphs" text-decoration="underline" textLength="139" x="442.5" y="249.0908">pauseSoundTrack(Clip): void</text><ellipse cx="433.5" cy="258.5078" fill="#84BE84" rx="3" ry="3" style="stroke: #038048; stroke-width: 1.0;"/><text fill="#000000" font-family="sans-serif" font-size="11" lengthAdjust="spacingAndGlyphs" text-decoration="underline" textLength="126" x="442.5" y="262.9268">playSoundLoop(Clip): void</text><ellipse cx="433.5" cy="272.3438" fill="#84BE84" rx="3" ry="3" style="stroke: #038048; stroke-width: 1.0;"/><text fill="#000000" font-family="sans-serif" font-size="11" lengthAdjust="spacingAndGlyphs" text-decoration="underline" textLength="134" x="442.5" y="276.7627">resetSoundTrack(Clip): void</text><ellipse cx="433.5" cy="286.1797" fill="#84BE84" rx="3" ry="3" style="stroke: #038048; stroke-width: 1.0;"/><text fill="#000000" font-family="sans-serif" font-size="11" lengthAdjust="spacingAndGlyphs" text-decoration="underline" textLength="103" x="442.5" y="290.5986">resetTrack(Clip): void</text></a><!--MD5=[046c06ab31a9cf5a224d9e962e797dc0]
class nz.ac.vuw.ecs.swen225.gp23.render.RenderPanel--><a href="RenderPanel.html" target="_top" title="RenderPanel.html" xlink:actuate="onRequest" xlink:href="RenderPanel.html" xlink:show="new" xlink:title="RenderPanel.html" xlink:type="simple"><rect codeLine="21" fill="#FEFECE" filter="url(#fgu61r79t3v6u)" height="117.1797" id="nz.ac.vuw.ecs.swen225.gp23.render.RenderPanel" style="stroke: #A80036; stroke-width: 1.5;" width="149" x="238.5" y="173"/><ellipse cx="273.3" cy="189" fill="#ADD1B2" rx="11" ry="11" style="stroke: #A80036; stroke-width: 1.0;"/><path d="M276.0656,184.875 Q276.2219,184.6563 276.4094,184.5469 Q276.5969,184.4375 276.8156,184.4375 Q277.1906,184.4375 277.425,184.7031 Q277.6594,184.9531 277.6594,185.5625 L277.6594,187.0156 Q277.6594,187.625 277.425,187.8906 Q277.1906,188.1563 276.8156,188.1563 Q276.4719,188.1563 276.2688,187.9531 Q276.0656,187.7656 275.9563,187.25 Q275.9094,186.8906 275.7219,186.7031 Q275.3938,186.3281 274.7844,186.1094 Q274.175,185.8906 273.55,185.8906 Q272.7844,185.8906 272.1438,186.2188 Q271.5188,186.5469 271.0188,187.2969 Q270.5344,188.0469 270.5344,189.0781 L270.5344,190.1719 Q270.5344,191.4063 271.425,192.2344 Q272.3156,193.0469 273.9094,193.0469 Q274.8469,193.0469 275.5031,192.7969 Q275.8938,192.6406 276.3156,192.2031 Q276.5813,191.9375 276.7219,191.8594 Q276.8781,191.7813 277.0813,191.7813 Q277.4094,191.7813 277.6594,192.0469 Q277.925,192.2969 277.925,192.6406 Q277.925,192.9844 277.5813,193.3906 Q277.0813,193.9688 276.2844,194.2969 Q275.2063,194.75 273.9094,194.75 Q272.3938,194.75 271.1906,194.125 Q270.2063,193.625 269.5188,192.5625 Q268.8313,191.4844 268.8313,190.2031 L268.8313,189.0469 Q268.8313,187.7188 269.4406,186.5781 Q270.0656,185.4219 271.1594,184.8125 Q272.2531,184.1875 273.4875,184.1875 Q274.2219,184.1875 274.8625,184.3594 Q275.5188,184.5156 276.0656,184.875 Z "/><text fill="#000000" font-family="sans-serif" font-size="12" lengthAdjust="spacingAndGlyphs" textLength="73" x="291.7" y="193.9102">RenderPanel</text><line style="stroke: #A80036; stroke-width: 1.5;" x1="239.5" x2="386.5" y1="205" y2="205"/><line style="stroke: #A80036; stroke-width: 1.5;" x1="239.5" x2="386.5" y1="213" y2="213"/><ellipse cx="249.5" cy="224" fill="#84BE84" rx="3" ry="3" style="stroke: #038048; stroke-width: 1.0;"/><text fill="#000000" font-family="sans-serif" font-size="11" lengthAdjust="spacingAndGlyphs" textLength="114" x="258.5" y="228.4189">RenderPanel(int, int, int)</text><ellipse cx="249.5" cy="237.8359" fill="#84BE84" rx="3" ry="3" style="stroke: #038048; stroke-width: 1.0;"/><text fill="#000000" font-family="sans-serif" font-size="11" lengthAdjust="spacingAndGlyphs" textLength="107" x="258.5" y="242.2549">setBoard(Board): void</text><ellipse cx="249.5" cy="251.6719" fill="#84BE84" rx="3" ry="3" style="stroke: #038048; stroke-width: 1.0;"/><text fill="#000000" font-family="sans-serif" font-size="11" lengthAdjust="spacingAndGlyphs" textLength="123" x="258.5" y="256.0908">setPaused(boolean): void</text><ellipse cx="249.5" cy="265.5078" fill="#84BE84" rx="3" ry="3" style="stroke: #038048; stroke-width: 1.0;"/><text fill="#000000" font-family="sans-serif" font-size="11" lengthAdjust="spacingAndGlyphs" textLength="91" x="258.5" y="269.9268">setTileset(int): void</text><ellipse cx="249.5" cy="279.3438" fill="#84BE84" rx="3" ry="3" style="stroke: #038048; stroke-width: 1.0;"/><text fill="#000000" font-family="sans-serif" font-size="11" lengthAdjust="spacingAndGlyphs" textLength="101" x="258.5" y="283.7627">paint(Graphics): void</text></a><!--MD5=[711c1eb711cce0ab12adda4cb26d1ea2]
class nz.ac.vuw.ecs.swen225.gp23.render.SquarePanel--><a href="SquarePanel.html" target="_top" title="SquarePanel.html" xlink:actuate="onRequest" xlink:href="SquarePanel.html" xlink:show="new" xlink:title="SquarePanel.html" xlink:type="simple"><rect codeLine="29" fill="#FEFECE" filter="url(#fgu61r79t3v6u)" height="89.5078" id="nz.ac.vuw.ecs.swen225.gp23.render.SquarePanel" style="stroke: #A80036; stroke-width: 1.5;" width="171" x="32.5" y="186.5"/><ellipse cx="77.75" cy="202.5" fill="#ADD1B2" rx="11" ry="11" style="stroke: #A80036; stroke-width: 1.0;"/><path d="M80.5156,198.375 Q80.6719,198.1563 80.8594,198.0469 Q81.0469,197.9375 81.2656,197.9375 Q81.6406,197.9375 81.875,198.2031 Q82.1094,198.4531 82.1094,199.0625 L82.1094,200.5156 Q82.1094,201.125 81.875,201.3906 Q81.6406,201.6563 81.2656,201.6563 Q80.9219,201.6563 80.7188,201.4531 Q80.5156,201.2656 80.4063,200.75 Q80.3594,200.3906 80.1719,200.2031 Q79.8438,199.8281 79.2344,199.6094 Q78.625,199.3906 78,199.3906 Q77.2344,199.3906 76.5938,199.7188 Q75.9688,200.0469 75.4688,200.7969 Q74.9844,201.5469 74.9844,202.5781 L74.9844,203.6719 Q74.9844,204.9063 75.875,205.7344 Q76.7656,206.5469 78.3594,206.5469 Q79.2969,206.5469 79.9531,206.2969 Q80.3438,206.1406 80.7656,205.7031 Q81.0313,205.4375 81.1719,205.3594 Q81.3281,205.2813 81.5313,205.2813 Q81.8594,205.2813 82.1094,205.5469 Q82.375,205.7969 82.375,206.1406 Q82.375,206.4844 82.0313,206.8906 Q81.5313,207.4688 80.7344,207.7969 Q79.6563,208.25 78.3594,208.25 Q76.8438,208.25 75.6406,207.625 Q74.6563,207.125 73.9688,206.0625 Q73.2813,204.9844 73.2813,203.7031 L73.2813,202.5469 Q73.2813,201.2188 73.8906,200.0781 Q74.5156,198.9219 75.6094,198.3125 Q76.7031,197.6875 77.9375,197.6875 Q78.6719,197.6875 79.3125,197.8594 Q79.9688,198.0156 80.5156,198.375 Z "/><text fill="#000000" font-family="sans-serif" font-size="12" lengthAdjust="spacingAndGlyphs" textLength="72" x="98.25" y="207.4102">SquarePanel</text><line style="stroke: #A80036; stroke-width: 1.5;" x1="33.5" x2="202.5" y1="218.5" y2="218.5"/><line style="stroke: #A80036; stroke-width: 1.5;" x1="33.5" x2="202.5" y1="226.5" y2="226.5"/><ellipse cx="43.5" cy="237.5" fill="#84BE84" rx="3" ry="3" style="stroke: #038048; stroke-width: 1.0;"/><text fill="#000000" font-family="sans-serif" font-size="11" lengthAdjust="spacingAndGlyphs" textLength="139" x="52.5" y="241.9189">getMinimumSize(): Dimension</text><ellipse cx="43.5" cy="251.3359" fill="#84BE84" rx="3" ry="3" style="stroke: #038048; stroke-width: 1.0;"/><text fill="#000000" font-family="sans-serif" font-size="11" lengthAdjust="spacingAndGlyphs" textLength="143" x="52.5" y="255.7549">getMaximumSize(): Dimension</text><ellipse cx="43.5" cy="265.1719" fill="#84BE84" rx="3" ry="3" style="stroke: #038048; stroke-width: 1.0;"/><text fill="#000000" font-family="sans-serif" font-size="11" lengthAdjust="spacingAndGlyphs" textLength="145" x="52.5" y="269.5908">getPreferredSize(): Dimension</text></a><!--MD5=[56a185cb33bdc7c23303e5865f20a19b]
class javax.swing.JPanel--><rect codeLine="41" fill="#FEFECE" filter="url(#fgu61r79t3v6u)" height="48" id="javax.swing.JPanel" style="stroke: #A80036; stroke-width: 1.5;" width="70" x="180" y="42"/><ellipse cx="195" cy="58" fill="#ADD1B2" rx="11" ry="11" style="stroke: #A80036; stroke-width: 1.0;"/><path d="M197.7656,53.875 Q197.9219,53.6563 198.1094,53.5469 Q198.2969,53.4375 198.5156,53.4375 Q198.8906,53.4375 199.125,53.7031 Q199.3594,53.9531 199.3594,54.5625 L199.3594,56.0156 Q199.3594,56.625 199.125,56.8906 Q198.8906,57.1563 198.5156,57.1563 Q198.1719,57.1563 197.9688,56.9531 Q197.7656,56.7656 197.6563,56.25 Q197.6094,55.8906 197.4219,55.7031 Q197.0938,55.3281 196.4844,55.1094 Q195.875,54.8906 195.25,54.8906 Q194.4844,54.8906 193.8438,55.2188 Q193.2188,55.5469 192.7188,56.2969 Q192.2344,57.0469 192.2344,58.0781 L192.2344,59.1719 Q192.2344,60.4063 193.125,61.2344 Q194.0156,62.0469 195.6094,62.0469 Q196.5469,62.0469 197.2031,61.7969 Q197.5938,61.6406 198.0156,61.2031 Q198.2813,60.9375 198.4219,60.8594 Q198.5781,60.7813 198.7813,60.7813 Q199.1094,60.7813 199.3594,61.0469 Q199.625,61.2969 199.625,61.6406 Q199.625,61.9844 199.2813,62.3906 Q198.7813,62.9688 197.9844,63.2969 Q196.9063,63.75 195.6094,63.75 Q194.0938,63.75 192.8906,63.125 Q191.9063,62.625 191.2188,61.5625 Q190.5313,60.4844 190.5313,59.2031 L190.5313,58.0469 Q190.5313,56.7188 191.1406,55.5781 Q191.7656,54.4219 192.8594,53.8125 Q193.9531,53.1875 195.1875,53.1875 Q195.9219,53.1875 196.5625,53.3594 Q197.2188,53.5156 197.7656,53.875 Z "/><text fill="#000000" font-family="sans-serif" font-size="12" lengthAdjust="spacingAndGlyphs" textLength="38" x="209" y="62.9102">JPanel</text><line style="stroke: #A80036; stroke-width: 1.5;" x1="181" x2="249" y1="74" y2="74"/><line style="stroke: #A80036; stroke-width: 1.5;" x1="181" x2="249" y1="82" y2="82"/><!--MD5=[982300e5cefd330cd28b45bc17c87988]
reverse link nz.ac.vuw.ecs.swen225.gp23.render.AudioModule to nz.ac.vuw.ecs.swen225.gp23.render.ChipAudioModule--><path codeLine="35" d="M517,317.39 C517,331.17 517,344.8 517,356.65 " fill="none" id="nz.ac.vuw.ecs.swen225.gp23.render.AudioModule-backto-nz.ac.vuw.ecs.swen225.gp23.render.ChipAudioModule" style="stroke: #A80036; stroke-width: 1.0;"/><polygon fill="none" points="510,317.26,517,297.26,524,317.26,510,317.26" style="stroke: #A80036; stroke-width: 1.0;"/><!--MD5=[0318a79505a23024b417933b45eb2a9e]
reverse link javax.swing.JPanel to nz.ac.vuw.ecs.swen225.gp23.render.RenderPanel--><path codeLine="36" d="M239.21,107.39 C251,127.07 265.4,151.08 278.33,172.66 " fill="none" id="javax.swing.JPanel-backto-nz.ac.vuw.ecs.swen225.gp23.render.RenderPanel" style="stroke: #A80036; stroke-width: 1.0;"/><polygon fill="none" points="233.11,110.83,228.83,90.08,245.12,103.63,233.11,110.83" style="stroke: #A80036; stroke-width: 1.0;"/><!--MD5=[76561684b7f9e1b5dd6c381681618a88]
reverse link javax.swing.JPanel to nz.ac.vuw.ecs.swen225.gp23.render.SquarePanel--><path codeLine="37" d="M191.09,107.31 C176.87,131.27 158.82,161.69 144.22,186.31 " fill="none" id="javax.swing.JPanel-backto-nz.ac.vuw.ecs.swen225.gp23.render.SquarePanel" style="stroke: #A80036; stroke-width: 1.0;"/><polygon fill="none" points="185.08,103.71,201.31,90.08,197.12,110.85,185.08,103.71" style="stroke: #A80036; stroke-width: 1.0;"/><text fill="#888888" font-family="sans-serif" font-size="10" lengthAdjust="spacingAndGlyphs" textLength="190" x="320.5" y="465.3809">UMLDoclet 2.0.12, PlantUML 1.2020.16</text><!--MD5=[be15d9a4db980178af3d1e31636f9159]
@startuml
    namespace nz.ac.vuw.ecs.swen225.gp23.render {

        class TileFinder [[TileFinder.html]] {
            {static} +getTile(String, int): ImageIcon
        }

        class ChipAudioModule [[ChipAudioModule.html]] {
            +playCurrentLevelTrack(int): void
            +moveEffect(): void
        }

        class AudioModule [[AudioModule.html]] {
            {static} +playSoundTrack(Clip, String): void
            {static} +playSound(Clip, String): void
            {static} +pauseSoundTrack(Clip): void
            {static} +playSoundLoop(Clip): void
            {static} +resetSoundTrack(Clip): void
            {static} +resetTrack(Clip): void
        }

        class RenderPanel [[RenderPanel.html]] {
            +RenderPanel(int, int, int)
            +setBoard(Board): void
            +setPaused(boolean): void
            +setTileset(int): void
            +paint(Graphics): void
        }

        class SquarePanel [[SquarePanel.html]] {
            +getMinimumSize(): Dimension
            +getMaximumSize(): Dimension
            +getPreferredSize(): Dimension
        }

        AudioModule <|- - ChipAudioModule
        javax.swing.JPanel <|- - RenderPanel
        javax.swing.JPanel <|- - SquarePanel
    }

    namespace javax.swing {
        class JPanel {
        }
    }

    center footer UMLDoclet 2.0.12, PlantUML 1.2020.16
@enduml

PlantUML version 1.2020.16(Mon Aug 24 08:20:43 NZST 2020)
(APACHE source distribution)
Java Runtime: Java(TM) SE Runtime Environment
JVM: Java HotSpot(TM) 64-Bit Server VM
Default Encoding: Cp1252
Language: en
Country: NZ
--></g></svg>