<?xml version="1.0" encoding="UTF-8" standalone="no"?><svg xmlns="http://www.w3.org/2000/svg" xmlns:xlink="http://www.w3.org/1999/xlink" contentScriptType="application/ecmascript" contentStyleType="text/css" height="234px" preserveAspectRatio="none" style="width:252px;height:234px;" version="1.1" viewBox="0 0 252 234" width="252px" zoomAndPan="magnify"><defs><filter height="300%" id="f1hmtj2vieryjc" width="300%" x="-1" y="-1"><feGaussianBlur result="blurOut" stdDeviation="2.0"/><feColorMatrix in="blurOut" result="blurOut2" type="matrix" values="0 0 0 0 0 0 0 0 0 0 0 0 0 0 0 0 0 0 .4 0"/><feOffset dx="4.0" dy="4.0" in="blurOut2" result="blurOut3"/><feBlend in="SourceGraphic" in2="blurOut3" mode="normal"/></filter></defs><g><!--MD5=[0b3acfce0c2126ebfad24ab375153d42]
class nz.ac.vuw.ecs.swen225.gp23.application.Application--><a href="Application.html" target="_top" title="Application.html" xlink:actuate="onRequest" xlink:href="Application.html" xlink:show="new" xlink:title="Application.html" xlink:type="simple"><rect codeLine="5" fill="#FEFECE" filter="url(#f1hmtj2vieryjc)" height="89.6953" id="nz.ac.vuw.ecs.swen225.gp23.application.Application" style="stroke: #A80036; stroke-width: 1.5;" width="226" x="7" y="7"/><ellipse cx="22" cy="27.0938" fill="#ADD1B2" rx="11" ry="11" style="stroke: #A80036; stroke-width: 1.0;"/><path d="M24.7656,22.9688 Q24.9219,22.75 25.1094,22.6406 Q25.2969,22.5313 25.5156,22.5313 Q25.8906,22.5313 26.125,22.7969 Q26.3594,23.0469 26.3594,23.6563 L26.3594,25.1094 Q26.3594,25.7188 26.125,25.9844 Q25.8906,26.25 25.5156,26.25 Q25.1719,26.25 24.9688,26.0469 Q24.7656,25.8594 24.6563,25.3438 Q24.6094,24.9844 24.4219,24.7969 Q24.0938,24.4219 23.4844,24.2031 Q22.875,23.9844 22.25,23.9844 Q21.4844,23.9844 20.8438,24.3125 Q20.2188,24.6406 19.7188,25.3906 Q19.2344,26.1406 19.2344,27.1719 L19.2344,28.2656 Q19.2344,29.5 20.125,30.3281 Q21.0156,31.1406 22.6094,31.1406 Q23.5469,31.1406 24.2031,30.8906 Q24.5938,30.7344 25.0156,30.2969 Q25.2813,30.0313 25.4219,29.9531 Q25.5781,29.875 25.7813,29.875 Q26.1094,29.875 26.3594,30.1406 Q26.625,30.3906 26.625,30.7344 Q26.625,31.0781 26.2813,31.4844 Q25.7813,32.0625 24.9844,32.3906 Q23.9063,32.8438 22.6094,32.8438 Q21.0938,32.8438 19.8906,32.2188 Q18.9063,31.7188 18.2188,30.6563 Q17.5313,29.5781 17.5313,28.2969 L17.5313,27.1406 Q17.5313,25.8125 18.1406,24.6719 Q18.7656,23.5156 19.8594,22.9063 Q20.9531,22.2813 22.1875,22.2813 Q22.9219,22.2813 23.5625,22.4531 Q24.2188,22.6094 24.7656,22.9688 Z "/><text fill="#000000" font-family="sans-serif" font-size="14" lengthAdjust="spacingAndGlyphs" textLength="69" x="98.5" y="26.5332">Application</text><text fill="#000000" font-family="sans-serif" font-size="10" lengthAdjust="spacingAndGlyphs" textLength="194" x="36" y="39.9902">nz.ac.vuw.ecs.swen225.gp23.application</text><line style="stroke: #A80036; stroke-width: 1.5;" x1="8" x2="232" y1="47.1875" y2="47.1875"/><ellipse cx="18" cy="58.1875" fill="#84BE84" rx="3" ry="3" style="stroke: #038048; stroke-width: 1.0;"/><text fill="#000000" font-family="sans-serif" font-size="11" lengthAdjust="spacingAndGlyphs" textLength="129" x="27" y="62.6064">transitionToRunning(): void</text><ellipse cx="18" cy="72.0234" fill="#84BE84" rx="3" ry="3" style="stroke: #038048; stroke-width: 1.0;"/><text fill="#000000" font-family="sans-serif" font-size="11" lengthAdjust="spacingAndGlyphs" textLength="103" x="27" y="76.4424">transitionToInit(): void</text><ellipse cx="18" cy="85.8594" fill="#84BE84" rx="3" ry="3" style="stroke: #038048; stroke-width: 1.0;"/><text fill="#000000" font-family="sans-serif" font-size="11" lengthAdjust="spacingAndGlyphs" textLength="113" x="27" y="90.2783">getState(): GameStates</text></a><!--MD5=[a7473c5866e8d0c3c6d576658bb86594]
class nz.ac.vuw.ecs.swen225.gp23.application.Application.GameStates--><a href="Application.GameStates.html" target="_top" title="Application.GameStates.html" xlink:actuate="onRequest" xlink:href="Application.GameStates.html" xlink:show="new" xlink:title="Application.GameStates.html" xlink:type="simple"><rect codeLine="10" fill="#FEFECE" filter="url(#f1hmtj2vieryjc)" height="40.1875" id="nz.ac.vuw.ecs.swen225.gp23.application.Application.GameStates" style="stroke: #A80036; stroke-width: 1.5;" width="226" x="7" y="157"/><ellipse cx="22" cy="177.0938" fill="#EB937F" rx="11" ry="11" style="stroke: #A80036; stroke-width: 1.0;"/><path d="M20.8594,177.8906 L20.8594,180.3906 L25.1875,180.3906 L25.1875,179.4688 Q25.1875,178.8594 25.4219,178.5938 Q25.6719,178.3281 26.0469,178.3281 Q26.4219,178.3281 26.6563,178.5938 Q26.8906,178.8594 26.8906,179.4688 L26.8906,182.0938 L18.8906,182.0938 Q18.2656,182.0938 18,181.8594 Q17.75,181.625 17.75,181.2344 Q17.75,180.8594 18.0156,180.625 Q18.2813,180.3906 18.8906,180.3906 L19.1563,180.3906 L19.1563,173.7344 L18.8906,173.7344 Q18.2656,173.7344 18,173.5 Q17.75,173.2656 17.75,172.875 Q17.75,172.5 18,172.2656 Q18.2656,172.0313 18.8906,172.0313 L26.5156,172.0313 L26.5156,174.625 Q26.5156,175.2344 26.2813,175.5 Q26.0625,175.75 25.6719,175.75 Q25.2969,175.75 25.0625,175.5 Q24.8281,175.2344 24.8281,174.625 L24.8281,173.7344 L20.8594,173.7344 L20.8594,176.1875 L22.3438,176.1875 Q22.3438,175.5313 22.4688,175.3438 Q22.7344,174.9375 23.2031,174.9375 Q23.5781,174.9375 23.8125,175.2031 Q24.0469,175.4531 24.0469,176.0625 L24.0469,178.0313 Q24.0469,178.5781 23.9219,178.7656 Q23.6563,179.1563 23.2031,179.1563 Q22.7344,179.1563 22.4688,178.75 Q22.3438,178.5625 22.3438,177.8906 L20.8594,177.8906 Z "/><text fill="#000000" font-family="sans-serif" font-size="14" lengthAdjust="spacingAndGlyphs" textLength="151" x="57.5" y="176.5332">Application.GameStates</text><text fill="#000000" font-family="sans-serif" font-size="10" lengthAdjust="spacingAndGlyphs" textLength="194" x="36" y="189.9902">nz.ac.vuw.ecs.swen225.gp23.application</text></a><!--MD5=[44ed483fabee9d80604d44573136e39a]
reverse link nz.ac.vuw.ecs.swen225.gp23.application.Application to nz.ac.vuw.ecs.swen225.gp23.application.Application.GameStates--><path codeLine="12" d="M120,112.34 C120,128.49 120,144.84 120,156.92 " fill="none" id="nz.ac.vuw.ecs.swen225.gp23.application.Application-backto-nz.ac.vuw.ecs.swen225.gp23.application.Application.GameStates" style="stroke: #A80036; stroke-width: 1.0;"/><ellipse cx="120" cy="105.06" fill="#FFFFFF" rx="8" ry="8" style="stroke: #A80036; stroke-width: 1.0;"/><line style="stroke: #A80036; stroke-width: 1.0;" x1="120" x2="120" y1="113.06" y2="97.06"/><line style="stroke: #A80036; stroke-width: 1.0;" x1="112" x2="128" y1="105.06" y2="105.06"/><text fill="#888888" font-family="sans-serif" font-size="10" lengthAdjust="spacingAndGlyphs" textLength="190" x="22" y="220.5684">UMLDoclet 2.0.12, PlantUML 1.2020.16</text><!--MD5=[c32fbdddbe723856c67d3842b1e87be2]
@startuml
    set namespaceSeparator none
    hide empty fields
    hide empty methods

    class "<size:14>Application\n<size:10>nz.ac.vuw.ecs.swen225.gp23.application" as nz.ac.vuw.ecs.swen225.gp23.application.Application [[Application.html]] {
        +transitionToRunning(): void
        +transitionToInit(): void
        +getState(): GameStates
    }
    enum "<size:14>Application.GameStates\n<size:10>nz.ac.vuw.ecs.swen225.gp23.application" as nz.ac.vuw.ecs.swen225.gp23.application.Application.GameStates [[Application.GameStates.html]]

    nz.ac.vuw.ecs.swen225.gp23.application.Application +- - nz.ac.vuw.ecs.swen225.gp23.application.Application.GameStates

    center footer UMLDoclet 2.0.12, PlantUML 1.2020.16
@enduml

PlantUML version 1.2020.16(Mon Aug 24 08:20:43 NZST 2020)
(APACHE source distribution)
Java Runtime: Java(TM) SE Runtime Environment
JVM: Java HotSpot(TM) 64-Bit Server VM
Default Encoding: Cp1252
Language: en
Country: NZ
--></g></svg>