<?xml version="1.0" encoding="UTF-8" standalone="no"?><svg xmlns="http://www.w3.org/2000/svg" xmlns:xlink="http://www.w3.org/1999/xlink" contentScriptType="application/ecmascript" contentStyleType="text/css" height="293px" preserveAspectRatio="none" style="width:394px;height:293px;" version="1.1" viewBox="0 0 394 293" width="394px" zoomAndPan="magnify"><defs><filter height="300%" id="f1pkm8akbqlbpz" width="300%" x="-1" y="-1"><feGaussianBlur result="blurOut" stdDeviation="2.0"/><feColorMatrix in="blurOut" result="blurOut2" type="matrix" values="0 0 0 0 0 0 0 0 0 0 0 0 0 0 0 0 0 0 .4 0"/><feOffset dx="4.0" dy="4.0" in="blurOut2" result="blurOut3"/><feBlend in="SourceGraphic" in2="blurOut3" mode="normal"/></filter></defs><g><!--MD5=[c34cad6071ee17c8d16fb3800ec1f563]
class nz.ac.vuw.ecs.swen225.gp23.application.Game--><a href="Game.html" target="_top" title="Game.html" xlink:actuate="onRequest" xlink:href="Game.html" xlink:show="new" xlink:title="Game.html" xlink:type="simple"><rect codeLine="5" fill="#FEFECE" filter="url(#f1pkm8akbqlbpz)" height="255.7266" id="nz.ac.vuw.ecs.swen225.gp23.application.Game" style="stroke: #A80036; stroke-width: 1.5;" width="368" x="7" y="7"/><ellipse cx="89.75" cy="27.0938" fill="#ADD1B2" rx="11" ry="11" style="stroke: #A80036; stroke-width: 1.0;"/><path d="M92.5156,22.9688 Q92.6719,22.75 92.8594,22.6406 Q93.0469,22.5313 93.2656,22.5313 Q93.6406,22.5313 93.875,22.7969 Q94.1094,23.0469 94.1094,23.6563 L94.1094,25.1094 Q94.1094,25.7188 93.875,25.9844 Q93.6406,26.25 93.2656,26.25 Q92.9219,26.25 92.7188,26.0469 Q92.5156,25.8594 92.4063,25.3438 Q92.3594,24.9844 92.1719,24.7969 Q91.8438,24.4219 91.2344,24.2031 Q90.625,23.9844 90,23.9844 Q89.2344,23.9844 88.5938,24.3125 Q87.9688,24.6406 87.4688,25.3906 Q86.9844,26.1406 86.9844,27.1719 L86.9844,28.2656 Q86.9844,29.5 87.875,30.3281 Q88.7656,31.1406 90.3594,31.1406 Q91.2969,31.1406 91.9531,30.8906 Q92.3438,30.7344 92.7656,30.2969 Q93.0313,30.0313 93.1719,29.9531 Q93.3281,29.875 93.5313,29.875 Q93.8594,29.875 94.1094,30.1406 Q94.375,30.3906 94.375,30.7344 Q94.375,31.0781 94.0313,31.4844 Q93.5313,32.0625 92.7344,32.3906 Q91.6563,32.8438 90.3594,32.8438 Q88.8438,32.8438 87.6406,32.2188 Q86.6563,31.7188 85.9688,30.6563 Q85.2813,29.5781 85.2813,28.2969 L85.2813,27.1406 Q85.2813,25.8125 85.8906,24.6719 Q86.5156,23.5156 87.6094,22.9063 Q88.7031,22.2813 89.9375,22.2813 Q90.6719,22.2813 91.3125,22.4531 Q91.9688,22.6094 92.5156,22.9688 Z "/><text fill="#000000" font-family="sans-serif" font-size="14" lengthAdjust="spacingAndGlyphs" textLength="38" x="188.25" y="26.5332">Game</text><text fill="#000000" font-family="sans-serif" font-size="10" lengthAdjust="spacingAndGlyphs" textLength="194" x="110.25" y="39.9902">nz.ac.vuw.ecs.swen225.gp23.application</text><line style="stroke: #A80036; stroke-width: 1.5;" x1="8" x2="374" y1="47.1875" y2="47.1875"/><ellipse cx="18" cy="58.1875" fill="#84BE84" rx="3" ry="3" style="stroke: #038048; stroke-width: 1.0;"/><text fill="#000000" font-family="sans-serif" font-size="11" lengthAdjust="spacingAndGlyphs" textLength="342" x="27" y="62.6064">Game(int, int, GraphicalInterface, Board, ChipAudioModule, Application)</text><ellipse cx="18" cy="72.0234" fill="#84BE84" rx="3" ry="3" style="stroke: #038048; stroke-width: 1.0;"/><text fill="#000000" font-family="sans-serif" font-size="11" lengthAdjust="spacingAndGlyphs" textLength="109" x="27" y="76.4424">printOutBoard(): String</text><ellipse cx="18" cy="85.8594" fill="#84BE84" rx="3" ry="3" style="stroke: #038048; stroke-width: 1.0;"/><text fill="#000000" font-family="sans-serif" font-size="11" lengthAdjust="spacingAndGlyphs" textLength="76" x="27" y="90.2783">runTimer(): void</text><ellipse cx="18" cy="99.6953" fill="#84BE84" rx="3" ry="3" style="stroke: #038048; stroke-width: 1.0;"/><text fill="#000000" font-family="sans-serif" font-size="11" lengthAdjust="spacingAndGlyphs" textLength="143" x="27" y="104.1143">onMovement(Directions): void</text><ellipse cx="18" cy="113.5313" fill="#84BE84" rx="3" ry="3" style="stroke: #038048; stroke-width: 1.0;"/><text fill="#000000" font-family="sans-serif" font-size="11" lengthAdjust="spacingAndGlyphs" textLength="86" x="27" y="117.9502">saveGame(): void</text><ellipse cx="18" cy="127.3672" fill="#84BE84" rx="3" ry="3" style="stroke: #038048; stroke-width: 1.0;"/><text fill="#000000" font-family="sans-serif" font-size="11" lengthAdjust="spacingAndGlyphs" textLength="81" x="27" y="131.7861">getTimeLeft(): int</text><ellipse cx="18" cy="141.2031" fill="#84BE84" rx="3" ry="3" style="stroke: #038048; stroke-width: 1.0;"/><text fill="#000000" font-family="sans-serif" font-size="11" lengthAdjust="spacingAndGlyphs" textLength="104" x="27" y="145.6221">terminateTimer(): void</text><ellipse cx="18" cy="155.0391" fill="#84BE84" rx="3" ry="3" style="stroke: #038048; stroke-width: 1.0;"/><text fill="#000000" font-family="sans-serif" font-size="11" lengthAdjust="spacingAndGlyphs" textLength="151" x="27" y="159.458">setGamePaused(boolean): void</text><ellipse cx="18" cy="168.875" fill="#84BE84" rx="3" ry="3" style="stroke: #038048; stroke-width: 1.0;"/><text fill="#000000" font-family="sans-serif" font-size="11" lengthAdjust="spacingAndGlyphs" textLength="87" x="27" y="173.2939">getBoard(): Board</text><ellipse cx="18" cy="182.7109" fill="#84BE84" rx="3" ry="3" style="stroke: #038048; stroke-width: 1.0;"/><text fill="#000000" font-family="sans-serif" font-size="11" lengthAdjust="spacingAndGlyphs" textLength="89" x="27" y="187.1299">getPlayer(): Player</text><ellipse cx="18" cy="196.5469" fill="#84BE84" rx="3" ry="3" style="stroke: #038048; stroke-width: 1.0;"/><text fill="#000000" font-family="sans-serif" font-size="11" lengthAdjust="spacingAndGlyphs" textLength="101" x="27" y="200.9658">setTimeLeft(int): void</text><ellipse cx="18" cy="210.3828" fill="#84BE84" rx="3" ry="3" style="stroke: #038048; stroke-width: 1.0;"/><text fill="#000000" font-family="sans-serif" font-size="11" lengthAdjust="spacingAndGlyphs" textLength="103" x="27" y="214.8018">getLevelNumber(): int</text><ellipse cx="18" cy="224.2188" fill="#84BE84" rx="3" ry="3" style="stroke: #038048; stroke-width: 1.0;"/><text fill="#000000" font-family="sans-serif" font-size="11" lengthAdjust="spacingAndGlyphs" textLength="96" x="27" y="228.6377">isPaused(): boolean</text><ellipse cx="18" cy="238.0547" fill="#84BE84" rx="3" ry="3" style="stroke: #038048; stroke-width: 1.0;"/><text fill="#000000" font-family="sans-serif" font-size="11" lengthAdjust="spacingAndGlyphs" textLength="140" x="27" y="242.4736">isRunningTest(boolean): void</text><ellipse cx="18" cy="251.8906" fill="#84BE84" rx="3" ry="3" style="stroke: #038048; stroke-width: 1.0;"/><text fill="#000000" font-family="sans-serif" font-size="11" lengthAdjust="spacingAndGlyphs" textLength="127" x="27" y="256.3096">getRunningTest(): boolean</text></a><text fill="#888888" font-family="sans-serif" font-size="10" lengthAdjust="spacingAndGlyphs" textLength="190" x="96" y="280.1074">UMLDoclet 2.0.12, PlantUML 1.2020.16</text><!--MD5=[83948fa188a631ebe6267e29e740bca6]
@startuml
    set namespaceSeparator none
    hide empty fields
    hide empty methods

    class "<size:14>Game\n<size:10>nz.ac.vuw.ecs.swen225.gp23.application" as nz.ac.vuw.ecs.swen225.gp23.application.Game [[Game.html]] {
        +Game(int, int, GraphicalInterface, Board, ChipAudioModule, Application)
        +printOutBoard(): String
        +runTimer(): void
        +onMovement(Directions): void
        +saveGame(): void
        +getTimeLeft(): int
        +terminateTimer(): void
        +setGamePaused(boolean): void
        +getBoard(): Board
        +getPlayer(): Player
        +setTimeLeft(int): void
        +getLevelNumber(): int
        +isPaused(): boolean
        +isRunningTest(boolean): void
        +getRunningTest(): boolean
    }

    center footer UMLDoclet 2.0.12, PlantUML 1.2020.16
@enduml

PlantUML version 1.2020.16(Mon Aug 24 08:20:43 NZST 2020)
(APACHE source distribution)
Java Runtime: Java(TM) SE Runtime Environment
JVM: Java HotSpot(TM) 64-Bit Server VM
Default Encoding: Cp1252
Language: en
Country: NZ
--></g></svg>