<?xml version="1.0" encoding="UTF-8" standalone="no"?><svg xmlns="http://www.w3.org/2000/svg" xmlns:xlink="http://www.w3.org/1999/xlink" contentScriptType="application/ecmascript" contentStyleType="text/css" height="560px" preserveAspectRatio="none" style="width:316px;height:560px;" version="1.1" viewBox="0 0 316 560" width="316px" zoomAndPan="magnify"><defs><filter height="300%" id="f1tzpw5djiqfel" width="300%" x="-1" y="-1"><feGaussianBlur result="blurOut" stdDeviation="2.0"/><feColorMatrix in="blurOut" result="blurOut2" type="matrix" values="0 0 0 0 0 0 0 0 0 0 0 0 0 0 0 0 0 0 .4 0"/><feOffset dx="4.0" dy="4.0" in="blurOut2" result="blurOut3"/><feBlend in="SourceGraphic" in2="blurOut3" mode="normal"/></filter></defs><g><!--MD5=[b08779566f346dad90b0ebf5c558afbf]
class nz.ac.vuw.ecs.swen225.gp23.application.GraphicalInterface--><a href="GraphicalInterface.html" target="_top" title="GraphicalInterface.html" xlink:actuate="onRequest" xlink:href="GraphicalInterface.html" xlink:show="new" xlink:title="GraphicalInterface.html" xlink:type="simple"><rect codeLine="5" fill="#FEFECE" filter="url(#f1tzpw5djiqfel)" height="366.4141" id="nz.ac.vuw.ecs.swen225.gp23.application.GraphicalInterface" style="stroke: #A80036; stroke-width: 1.5;" width="232" x="15" y="157"/><ellipse cx="32.7" cy="177.0938" fill="#ADD1B2" rx="11" ry="11" style="stroke: #A80036; stroke-width: 1.0;"/><path d="M35.4656,172.9688 Q35.6219,172.75 35.8094,172.6406 Q35.9969,172.5313 36.2156,172.5313 Q36.5906,172.5313 36.825,172.7969 Q37.0594,173.0469 37.0594,173.6563 L37.0594,175.1094 Q37.0594,175.7188 36.825,175.9844 Q36.5906,176.25 36.2156,176.25 Q35.8719,176.25 35.6688,176.0469 Q35.4656,175.8594 35.3563,175.3438 Q35.3094,174.9844 35.1219,174.7969 Q34.7938,174.4219 34.1844,174.2031 Q33.575,173.9844 32.95,173.9844 Q32.1844,173.9844 31.5438,174.3125 Q30.9188,174.6406 30.4188,175.3906 Q29.9344,176.1406 29.9344,177.1719 L29.9344,178.2656 Q29.9344,179.5 30.825,180.3281 Q31.7156,181.1406 33.3094,181.1406 Q34.2469,181.1406 34.9031,180.8906 Q35.2938,180.7344 35.7156,180.2969 Q35.9813,180.0313 36.1219,179.9531 Q36.2781,179.875 36.4813,179.875 Q36.8094,179.875 37.0594,180.1406 Q37.325,180.3906 37.325,180.7344 Q37.325,181.0781 36.9813,181.4844 Q36.4813,182.0625 35.6844,182.3906 Q34.6063,182.8438 33.3094,182.8438 Q31.7938,182.8438 30.5906,182.2188 Q29.6063,181.7188 28.9188,180.6563 Q28.2313,179.5781 28.2313,178.2969 L28.2313,177.1406 Q28.2313,175.8125 28.8406,174.6719 Q29.4656,173.5156 30.5594,172.9063 Q31.6531,172.2813 32.8875,172.2813 Q33.6219,172.2813 34.2625,172.4531 Q34.9188,172.6094 35.4656,172.9688 Z "/><text fill="#000000" font-family="sans-serif" font-size="14" lengthAdjust="spacingAndGlyphs" textLength="116" x="86.3" y="176.5332">GraphicalInterface</text><text fill="#000000" font-family="sans-serif" font-size="10" lengthAdjust="spacingAndGlyphs" textLength="194" x="47.3" y="189.9902">nz.ac.vuw.ecs.swen225.gp23.application</text><line style="stroke: #A80036; stroke-width: 1.5;" x1="16" x2="246" y1="197.1875" y2="197.1875"/><ellipse cx="26" cy="208.1875" fill="#84BE84" rx="3" ry="3" style="stroke: #038048; stroke-width: 1.0;"/><text fill="#000000" font-family="sans-serif" font-size="11" lengthAdjust="spacingAndGlyphs" textLength="150" x="35" y="212.6064">GraphicalInterface(Application)</text><ellipse cx="26" cy="222.0234" fill="#84BE84" rx="3" ry="3" style="stroke: #038048; stroke-width: 1.0;"/><text fill="#000000" font-family="sans-serif" font-size="11" lengthAdjust="spacingAndGlyphs" textLength="174" x="35" y="226.4424">displayMessage(String, String): void</text><ellipse cx="26" cy="235.8594" fill="#84BE84" rx="3" ry="3" style="stroke: #038048; stroke-width: 1.0;"/><text fill="#000000" font-family="sans-serif" font-size="11" lengthAdjust="spacingAndGlyphs" textLength="123" x="35" y="240.2783">helpMenuContents(): void</text><ellipse cx="26" cy="249.6953" fill="#84BE84" rx="3" ry="3" style="stroke: #038048; stroke-width: 1.0;"/><text fill="#000000" font-family="sans-serif" font-size="11" lengthAdjust="spacingAndGlyphs" textLength="153" x="35" y="254.1143">displayAboutMenu(): JMenuItem</text><ellipse cx="26" cy="263.5313" fill="#84BE84" rx="3" ry="3" style="stroke: #038048; stroke-width: 1.0;"/><text fill="#000000" font-family="sans-serif" font-size="11" lengthAdjust="spacingAndGlyphs" textLength="112" x="35" y="267.9502">updateInventory(): void</text><ellipse cx="26" cy="277.3672" fill="#84BE84" rx="3" ry="3" style="stroke: #038048; stroke-width: 1.0;"/><text fill="#000000" font-family="sans-serif" font-size="11" lengthAdjust="spacingAndGlyphs" textLength="97" x="35" y="281.7861">onNewGame(): void</text><ellipse cx="26" cy="291.2031" fill="#84BE84" rx="3" ry="3" style="stroke: #038048; stroke-width: 1.0;"/><text fill="#000000" font-family="sans-serif" font-size="11" lengthAdjust="spacingAndGlyphs" textLength="98" x="35" y="295.6221">onLoadGame(): void</text><ellipse cx="26" cy="305.0391" fill="#84BE84" rx="3" ry="3" style="stroke: #038048; stroke-width: 1.0;"/><text fill="#000000" font-family="sans-serif" font-size="11" lengthAdjust="spacingAndGlyphs" textLength="199" x="35" y="309.458">onLoadGameNoGui(String, boolean): void</text><ellipse cx="26" cy="318.875" fill="#84BE84" rx="3" ry="3" style="stroke: #038048; stroke-width: 1.0;"/><text fill="#000000" font-family="sans-serif" font-size="11" lengthAdjust="spacingAndGlyphs" textLength="134" x="35" y="323.2939">onStopGame(boolean): void</text><ellipse cx="26" cy="332.7109" fill="#84BE84" rx="3" ry="3" style="stroke: #038048; stroke-width: 1.0;"/><text fill="#000000" font-family="sans-serif" font-size="11" lengthAdjust="spacingAndGlyphs" textLength="142" x="35" y="337.1299">onPauseGame(boolean): void</text><ellipse cx="26" cy="346.5469" fill="#84BE84" rx="3" ry="3" style="stroke: #038048; stroke-width: 1.0;"/><text fill="#000000" font-family="sans-serif" font-size="11" lengthAdjust="spacingAndGlyphs" textLength="102" x="35" y="350.9658">updateDisplay(): void</text><ellipse cx="26" cy="360.3828" fill="#84BE84" rx="3" ry="3" style="stroke: #038048; stroke-width: 1.0;"/><text fill="#000000" font-family="sans-serif" font-size="11" lengthAdjust="spacingAndGlyphs" textLength="206" x="35" y="364.8018">levelCompleteMessage(int, int, int, int): void</text><ellipse cx="26" cy="374.2188" fill="#84BE84" rx="3" ry="3" style="stroke: #038048; stroke-width: 1.0;"/><text fill="#000000" font-family="sans-serif" font-size="11" lengthAdjust="spacingAndGlyphs" textLength="145" x="35" y="378.6377">outOfTime(String, String): void</text><ellipse cx="26" cy="388.0547" fill="#84BE84" rx="3" ry="3" style="stroke: #038048; stroke-width: 1.0;"/><text fill="#000000" font-family="sans-serif" font-size="11" lengthAdjust="spacingAndGlyphs" textLength="127" x="35" y="392.4736">keyTyped(KeyEvent): void</text><ellipse cx="26" cy="401.8906" fill="#84BE84" rx="3" ry="3" style="stroke: #038048; stroke-width: 1.0;"/><text fill="#000000" font-family="sans-serif" font-size="11" lengthAdjust="spacingAndGlyphs" textLength="137" x="35" y="406.3096">keyPressed(KeyEvent): void</text><ellipse cx="26" cy="415.7266" fill="#84BE84" rx="3" ry="3" style="stroke: #038048; stroke-width: 1.0;"/><text fill="#000000" font-family="sans-serif" font-size="11" lengthAdjust="spacingAndGlyphs" textLength="142" x="35" y="420.1455">keyReleased(KeyEvent): void</text><ellipse cx="26" cy="429.5625" fill="#84BE84" rx="3" ry="3" style="stroke: #038048; stroke-width: 1.0;"/><text fill="#000000" font-family="sans-serif" font-size="11" lengthAdjust="spacingAndGlyphs" textLength="151" x="35" y="433.9814">getRenderPanel(): RenderPanel</text><ellipse cx="26" cy="443.3984" fill="#84BE84" rx="3" ry="3" style="stroke: #038048; stroke-width: 1.0;"/><text fill="#000000" font-family="sans-serif" font-size="11" lengthAdjust="spacingAndGlyphs" textLength="171" x="35" y="447.8174">setRenderPanel(RenderPanel): void</text><ellipse cx="26" cy="457.2344" fill="#84BE84" rx="3" ry="3" style="stroke: #038048; stroke-width: 1.0;"/><text fill="#000000" font-family="sans-serif" font-size="11" lengthAdjust="spacingAndGlyphs" textLength="121" x="35" y="461.6533">getCurrentGame(): Game</text><ellipse cx="26" cy="471.0703" fill="#84BE84" rx="3" ry="3" style="stroke: #038048; stroke-width: 1.0;"/><text fill="#000000" font-family="sans-serif" font-size="11" lengthAdjust="spacingAndGlyphs" textLength="112" x="35" y="475.4893">getLevelLabel(): JLabel</text><ellipse cx="26" cy="484.9063" fill="#84BE84" rx="3" ry="3" style="stroke: #038048; stroke-width: 1.0;"/><text fill="#000000" font-family="sans-serif" font-size="11" lengthAdjust="spacingAndGlyphs" textLength="108" x="35" y="489.3252">setTimeLabel(int): void</text><ellipse cx="26" cy="498.7422" fill="#84BE84" rx="3" ry="3" style="stroke: #038048; stroke-width: 1.0;"/><text fill="#000000" font-family="sans-serif" font-size="11" lengthAdjust="spacingAndGlyphs" textLength="108" x="35" y="503.1611">getTimeLabel(): JLabel</text><ellipse cx="26" cy="512.5781" fill="#84BE84" rx="3" ry="3" style="stroke: #038048; stroke-width: 1.0;"/><text fill="#000000" font-family="sans-serif" font-size="11" lengthAdjust="spacingAndGlyphs" textLength="132" x="35" y="516.9971">setChipsLeftLabel(int): void</text></a><!--MD5=[18a7562403221f513ca44e0f82c4c17a]
class javax.swing.JFrame--><rect codeLine="31" fill="#FEFECE" filter="url(#f1tzpw5djiqfel)" height="40.1875" id="javax.swing.JFrame" style="stroke: #A80036; stroke-width: 1.5;" width="86" x="7" y="32"/><ellipse cx="22" cy="52.0938" fill="#ADD1B2" rx="11" ry="11" style="stroke: #A80036; stroke-width: 1.0;"/><path d="M24.7656,47.9688 Q24.9219,47.75 25.1094,47.6406 Q25.2969,47.5313 25.5156,47.5313 Q25.8906,47.5313 26.125,47.7969 Q26.3594,48.0469 26.3594,48.6563 L26.3594,50.1094 Q26.3594,50.7188 26.125,50.9844 Q25.8906,51.25 25.5156,51.25 Q25.1719,51.25 24.9688,51.0469 Q24.7656,50.8594 24.6563,50.3438 Q24.6094,49.9844 24.4219,49.7969 Q24.0938,49.4219 23.4844,49.2031 Q22.875,48.9844 22.25,48.9844 Q21.4844,48.9844 20.8438,49.3125 Q20.2188,49.6406 19.7188,50.3906 Q19.2344,51.1406 19.2344,52.1719 L19.2344,53.2656 Q19.2344,54.5 20.125,55.3281 Q21.0156,56.1406 22.6094,56.1406 Q23.5469,56.1406 24.2031,55.8906 Q24.5938,55.7344 25.0156,55.2969 Q25.2813,55.0313 25.4219,54.9531 Q25.5781,54.875 25.7813,54.875 Q26.1094,54.875 26.3594,55.1406 Q26.625,55.3906 26.625,55.7344 Q26.625,56.0781 26.2813,56.4844 Q25.7813,57.0625 24.9844,57.3906 Q23.9063,57.8438 22.6094,57.8438 Q21.0938,57.8438 19.8906,57.2188 Q18.9063,56.7188 18.2188,55.6563 Q17.5313,54.5781 17.5313,53.2969 L17.5313,52.1406 Q17.5313,50.8125 18.1406,49.6719 Q18.7656,48.5156 19.8594,47.9063 Q20.9531,47.2813 22.1875,47.2813 Q22.9219,47.2813 23.5625,47.4531 Q24.2188,47.6094 24.7656,47.9688 Z "/><text fill="#000000" font-family="sans-serif" font-size="14" lengthAdjust="spacingAndGlyphs" textLength="47" x="39.5" y="51.5332">JFrame</text><text fill="#000000" font-family="sans-serif" font-size="10" lengthAdjust="spacingAndGlyphs" textLength="54" x="36" y="64.9902">javax.swing</text><!--MD5=[3eb55d915ce4c988cc6fe2a782a0fcdf]
class java.awt.event.KeyListener--><rect codeLine="32" fill="#FEFECE" filter="url(#f1tzpw5djiqfel)" height="89.6953" id="java.awt.event.KeyListener" style="stroke: #A80036; stroke-width: 1.5;" width="169" x="128.5" y="7"/><ellipse cx="171.4" cy="27.0938" fill="#B4A7E5" rx="11" ry="11" style="stroke: #A80036; stroke-width: 1.0;"/><path d="M172.3531,23.7344 L172.3531,30.3906 L174.0719,30.3906 Q174.6813,30.3906 174.9469,30.625 Q175.2125,30.8594 175.2125,31.25 Q175.2125,31.625 174.9469,31.8594 Q174.6813,32.0938 174.0719,32.0938 L168.9313,32.0938 Q168.3219,32.0938 168.0563,31.8594 Q167.7906,31.625 167.7906,31.2344 Q167.7906,30.8594 168.0563,30.625 Q168.3219,30.3906 168.9313,30.3906 L170.65,30.3906 L170.65,23.7344 L168.9313,23.7344 Q168.3219,23.7344 168.0563,23.5 Q167.7906,23.2656 167.7906,22.875 Q167.7906,22.5 168.0563,22.2656 Q168.3219,22.0313 168.9313,22.0313 L174.0719,22.0313 Q174.6813,22.0313 174.9469,22.2656 Q175.2125,22.5 175.2125,22.875 Q175.2125,23.2656 174.9469,23.5 Q174.6813,23.7344 174.0719,23.7344 L172.3531,23.7344 Z "/><text fill="#000000" font-family="sans-serif" font-size="14" font-style="italic" lengthAdjust="spacingAndGlyphs" textLength="75" x="191.6" y="26.5332">KeyListener</text><text fill="#000000" font-family="sans-serif" font-size="10" font-style="italic" lengthAdjust="spacingAndGlyphs" textLength="68" x="195.1" y="39.9902">java.awt.event</text><line style="stroke: #A80036; stroke-width: 1.5;" x1="129.5" x2="296.5" y1="47.1875" y2="47.1875"/><ellipse cx="139.5" cy="58.1875" fill="#84BE84" rx="3" ry="3" style="stroke: #038048; stroke-width: 1.0;"/><text fill="#000000" font-family="sans-serif" font-size="11" font-style="italic" lengthAdjust="spacingAndGlyphs" textLength="126" x="148.5" y="62.6064">keyTyped(KeyEvent): void</text><ellipse cx="139.5" cy="72.0234" fill="#84BE84" rx="3" ry="3" style="stroke: #038048; stroke-width: 1.0;"/><text fill="#000000" font-family="sans-serif" font-size="11" font-style="italic" lengthAdjust="spacingAndGlyphs" textLength="137" x="148.5" y="76.4424">keyPressed(KeyEvent): void</text><ellipse cx="139.5" cy="85.8594" fill="#84BE84" rx="3" ry="3" style="stroke: #038048; stroke-width: 1.0;"/><text fill="#000000" font-family="sans-serif" font-size="11" font-style="italic" lengthAdjust="spacingAndGlyphs" textLength="143" x="148.5" y="90.2783">keyReleased(KeyEvent): void</text><!--MD5=[02b83f41400ba56955f16260378dac8e]
reverse link javax.swing.JFrame to nz.ac.vuw.ecs.swen225.gp23.application.GraphicalInterface--><path codeLine="38" d="M60.9,91.49 C65.99,109.44 72.44,132.23 79.36,156.68 " fill="none" id="javax.swing.JFrame-backto-nz.ac.vuw.ecs.swen225.gp23.application.GraphicalInterface" style="stroke: #A80036; stroke-width: 1.0;"/><polygon fill="none" points="54.16,93.36,55.44,72.21,67.63,89.54,54.16,93.36" style="stroke: #A80036; stroke-width: 1.0;"/><!--MD5=[98ba6a3e9ba3acff6c91efeea780cbd9]
reverse link java.awt.event.KeyListener to nz.ac.vuw.ecs.swen225.gp23.application.GraphicalInterface--><path codeLine="39" d="M194.74,116.7 C191.19,129.08 187.3,142.63 183.26,156.73 " fill="none" id="java.awt.event.KeyListener-backto-nz.ac.vuw.ecs.swen225.gp23.application.GraphicalInterface" style="stroke: #A80036; stroke-width: 1.0; stroke-dasharray: 7.0,7.0;"/><polygon fill="none" points="188.13,114.36,200.37,97.06,201.58,118.22,188.13,114.36" style="stroke: #A80036; stroke-width: 1.0;"/><text fill="#888888" font-family="sans-serif" font-size="10" lengthAdjust="spacingAndGlyphs" textLength="190" x="54.25" y="546.7949">UMLDoclet 2.0.12, PlantUML 1.2020.16</text><!--MD5=[86f48459bc3af488356b57217d2051b4]
@startuml
    set namespaceSeparator none
    hide empty fields
    hide empty methods

    class "<size:14>GraphicalInterface\n<size:10>nz.ac.vuw.ecs.swen225.gp23.application" as nz.ac.vuw.ecs.swen225.gp23.application.GraphicalInterface [[GraphicalInterface.html]] {
        +GraphicalInterface(Application)
        +displayMessage(String, String): void
        +helpMenuContents(): void
        +displayAboutMenu(): JMenuItem
        +updateInventory(): void
        +onNewGame(): void
        +onLoadGame(): void
        +onLoadGameNoGui(String, boolean): void
        +onStopGame(boolean): void
        +onPauseGame(boolean): void
        +updateDisplay(): void
        +levelCompleteMessage(int, int, int, int): void
        +outOfTime(String, String): void
        +keyTyped(KeyEvent): void
        +keyPressed(KeyEvent): void
        +keyReleased(KeyEvent): void
        +getRenderPanel(): RenderPanel
        +setRenderPanel(RenderPanel): void
        +getCurrentGame(): Game
        +getLevelLabel(): JLabel
        +setTimeLabel(int): void
        +getTimeLabel(): JLabel
        +setChipsLeftLabel(int): void
    }

    class "<size:14>JFrame\n<size:10>javax.swing" as javax.swing.JFrame
    interface "<size:14>KeyListener\n<size:10>java.awt.event" as java.awt.event.KeyListener {
        {abstract} +keyTyped(KeyEvent): void
        {abstract} +keyPressed(KeyEvent): void
        {abstract} +keyReleased(KeyEvent): void
    }

    javax.swing.JFrame <|- - nz.ac.vuw.ecs.swen225.gp23.application.GraphicalInterface
    java.awt.event.KeyListener <|.. nz.ac.vuw.ecs.swen225.gp23.application.GraphicalInterface

    center footer UMLDoclet 2.0.12, PlantUML 1.2020.16
@enduml

PlantUML version 1.2020.16(Mon Aug 24 08:20:43 NZST 2020)
(APACHE source distribution)
Java Runtime: Java(TM) SE Runtime Environment
JVM: Java HotSpot(TM) 64-Bit Server VM
Default Encoding: Cp1252
Language: en
Country: NZ
--></g></svg>