<?xml version="1.0" encoding="UTF-8" standalone="no"?><svg xmlns="http://www.w3.org/2000/svg" xmlns:xlink="http://www.w3.org/1999/xlink" contentScriptType="application/ecmascript" contentStyleType="text/css" height="948px" preserveAspectRatio="none" style="width:647px;height:948px;" version="1.1" viewBox="0 0 647 948" width="647px" zoomAndPan="magnify"><defs><filter height="300%" id="f1i8ir43mhzuwd" width="300%" x="-1" y="-1"><feGaussianBlur result="blurOut" stdDeviation="2.0"/><feColorMatrix in="blurOut" result="blurOut2" type="matrix" values="0 0 0 0 0 0 0 0 0 0 0 0 0 0 0 0 0 0 .4 0"/><feOffset dx="4.0" dy="4.0" in="blurOut2" result="blurOut3"/><feBlend in="SourceGraphic" in2="blurOut3" mode="normal"/></filter></defs><g><!--MD5=[38649b9034d710edd340163d5e529acc]
cluster nz.ac.vuw.ecs.swen225.gp23.application--><polygon fill="#FFFFFF" filter="url(#f1i8ir43mhzuwd)" points="19,181,307,181,314,204.6094,625,204.6094,625,919,19,919,19,181" style="stroke: #000000; stroke-width: 1.5;"/><line style="stroke: #000000; stroke-width: 1.5;" x1="19" x2="314" y1="204.6094" y2="204.6094"/><text fill="#000000" font-family="sans-serif" font-size="14" font-weight="bold" lengthAdjust="spacingAndGlyphs" textLength="282" x="23" y="197.5332">nz.ac.vuw.ecs.swen225.gp23.application</text><!--MD5=[535aab4de90d4dfa371a9b40d5438fc3]
cluster javax.swing--><polygon fill="#FFFFFF" filter="url(#f1i8ir43mhzuwd)" points="16,6,104,6,111,29.6094,260,29.6094,260,148,16,148,16,6" style="stroke: #000000; stroke-width: 1.5;"/><line style="stroke: #000000; stroke-width: 1.5;" x1="16" x2="111" y1="29.6094" y2="29.6094"/><text fill="#000000" font-family="sans-serif" font-size="14" font-weight="bold" lengthAdjust="spacingAndGlyphs" textLength="82" x="20" y="22.5332">javax.swing</text><!--MD5=[d63c23c2d4b14118d71bd46d55a646bd]
cluster java.awt.event--><polygon fill="#FFFFFF" filter="url(#f1i8ir43mhzuwd)" points="284,6,392,6,399,29.6094,486,29.6094,486,148,284,148,284,6" style="stroke: #000000; stroke-width: 1.5;"/><line style="stroke: #000000; stroke-width: 1.5;" x1="284" x2="399" y1="29.6094" y2="29.6094"/><text fill="#000000" font-family="sans-serif" font-size="14" font-weight="bold" lengthAdjust="spacingAndGlyphs" textLength="102" x="288" y="22.5332">java.awt.event</text><!--MD5=[0b3acfce0c2126ebfad24ab375153d42]
class nz.ac.vuw.ecs.swen225.gp23.application.Application--><a href="Application.html" target="_top" title="Application.html" xlink:actuate="onRequest" xlink:href="Application.html" xlink:show="new" xlink:title="Application.html" xlink:type="simple"><rect codeLine="3" fill="#FEFECE" filter="url(#f1i8ir43mhzuwd)" height="75.6719" id="nz.ac.vuw.ecs.swen225.gp23.application.Application" style="stroke: #A80036; stroke-width: 1.5;" width="155" x="453.5" y="355"/><ellipse cx="496.85" cy="371" fill="#ADD1B2" rx="11" ry="11" style="stroke: #A80036; stroke-width: 1.0;"/><path d="M499.6156,366.875 Q499.7719,366.6563 499.9594,366.5469 Q500.1469,366.4375 500.3656,366.4375 Q500.7406,366.4375 500.975,366.7031 Q501.2094,366.9531 501.2094,367.5625 L501.2094,369.0156 Q501.2094,369.625 500.975,369.8906 Q500.7406,370.1563 500.3656,370.1563 Q500.0219,370.1563 499.8188,369.9531 Q499.6156,369.7656 499.5063,369.25 Q499.4594,368.8906 499.2719,368.7031 Q498.9438,368.3281 498.3344,368.1094 Q497.725,367.8906 497.1,367.8906 Q496.3344,367.8906 495.6938,368.2188 Q495.0688,368.5469 494.5688,369.2969 Q494.0844,370.0469 494.0844,371.0781 L494.0844,372.1719 Q494.0844,373.4063 494.975,374.2344 Q495.8656,375.0469 497.4594,375.0469 Q498.3969,375.0469 499.0531,374.7969 Q499.4438,374.6406 499.8656,374.2031 Q500.1313,373.9375 500.2719,373.8594 Q500.4281,373.7813 500.6313,373.7813 Q500.9594,373.7813 501.2094,374.0469 Q501.475,374.2969 501.475,374.6406 Q501.475,374.9844 501.1313,375.3906 Q500.6313,375.9688 499.8344,376.2969 Q498.7563,376.75 497.4594,376.75 Q495.9438,376.75 494.7406,376.125 Q493.7563,375.625 493.0688,374.5625 Q492.3813,373.4844 492.3813,372.2031 L492.3813,371.0469 Q492.3813,369.7188 492.9906,368.5781 Q493.6156,367.4219 494.7094,366.8125 Q495.8031,366.1875 497.0375,366.1875 Q497.7719,366.1875 498.4125,366.3594 Q499.0688,366.5156 499.6156,366.875 Z "/><text fill="#000000" font-family="sans-serif" font-size="12" lengthAdjust="spacingAndGlyphs" textLength="60" x="517.15" y="375.9102">Application</text><line style="stroke: #A80036; stroke-width: 1.5;" x1="454.5" x2="607.5" y1="387" y2="387"/><line style="stroke: #A80036; stroke-width: 1.5;" x1="454.5" x2="607.5" y1="395" y2="395"/><ellipse cx="464.5" cy="406" fill="#84BE84" rx="3" ry="3" style="stroke: #038048; stroke-width: 1.0;"/><text fill="#000000" font-family="sans-serif" font-size="11" lengthAdjust="spacingAndGlyphs" textLength="129" x="473.5" y="410.4189">transitionToRunning(): void</text><ellipse cx="464.5" cy="419.8359" fill="#84BE84" rx="3" ry="3" style="stroke: #038048; stroke-width: 1.0;"/><text fill="#000000" font-family="sans-serif" font-size="11" lengthAdjust="spacingAndGlyphs" textLength="103" x="473.5" y="424.2549">transitionToInit(): void</text></a><!--MD5=[a7473c5866e8d0c3c6d576658bb86594]
class nz.ac.vuw.ecs.swen225.gp23.application.Application.GameStates--><a href="Application.GameStates.html" target="_top" title="Application.GameStates.html" xlink:actuate="onRequest" xlink:href="Application.GameStates.html" xlink:show="new" xlink:title="Application.GameStates.html" xlink:type="simple"><rect codeLine="8" fill="#FEFECE" filter="url(#f1i8ir43mhzuwd)" height="75.6719" id="nz.ac.vuw.ecs.swen225.gp23.application.Application.GameStates" style="stroke: #A80036; stroke-width: 1.5;" width="164" x="442" y="737"/><ellipse cx="457" cy="753" fill="#EB937F" rx="11" ry="11" style="stroke: #A80036; stroke-width: 1.0;"/><path d="M455.8594,753.7969 L455.8594,756.2969 L460.1875,756.2969 L460.1875,755.375 Q460.1875,754.7656 460.4219,754.5 Q460.6719,754.2344 461.0469,754.2344 Q461.4219,754.2344 461.6563,754.5 Q461.8906,754.7656 461.8906,755.375 L461.8906,758 L453.8906,758 Q453.2656,758 453,757.7656 Q452.75,757.5313 452.75,757.1406 Q452.75,756.7656 453.0156,756.5313 Q453.2813,756.2969 453.8906,756.2969 L454.1563,756.2969 L454.1563,749.6406 L453.8906,749.6406 Q453.2656,749.6406 453,749.4063 Q452.75,749.1719 452.75,748.7813 Q452.75,748.4063 453,748.1719 Q453.2656,747.9375 453.8906,747.9375 L461.5156,747.9375 L461.5156,750.5313 Q461.5156,751.1406 461.2813,751.4063 Q461.0625,751.6563 460.6719,751.6563 Q460.2969,751.6563 460.0625,751.4063 Q459.8281,751.1406 459.8281,750.5313 L459.8281,749.6406 L455.8594,749.6406 L455.8594,752.0938 L457.3438,752.0938 Q457.3438,751.4375 457.4688,751.25 Q457.7344,750.8438 458.2031,750.8438 Q458.5781,750.8438 458.8125,751.1094 Q459.0469,751.3594 459.0469,751.9688 L459.0469,753.9375 Q459.0469,754.4844 458.9219,754.6719 Q458.6563,755.0625 458.2031,755.0625 Q457.7344,755.0625 457.4688,754.6563 Q457.3438,754.4688 457.3438,753.7969 L455.8594,753.7969 Z "/><text fill="#000000" font-family="sans-serif" font-size="12" lengthAdjust="spacingAndGlyphs" textLength="132" x="471" y="757.9102">Application.GameStates</text><line style="stroke: #A80036; stroke-width: 1.5;" x1="443" x2="605" y1="769" y2="769"/><ellipse cx="453" cy="780" fill="none" rx="3" ry="3" style="stroke: #038048; stroke-width: 1.0;"/><text fill="#000000" font-family="sans-serif" font-size="11" lengthAdjust="spacingAndGlyphs" text-decoration="underline" textLength="21" x="462" y="784.4189">IDLE</text><ellipse cx="453" cy="793.8359" fill="none" rx="3" ry="3" style="stroke: #038048; stroke-width: 1.0;"/><text fill="#000000" font-family="sans-serif" font-size="11" lengthAdjust="spacingAndGlyphs" text-decoration="underline" textLength="45" x="462" y="798.2549">RUNNING</text><line style="stroke: #A80036; stroke-width: 1.5;" x1="443" x2="605" y1="804.6719" y2="804.6719"/></a><!--MD5=[c7ee8193554ee1708500b7948231e09f]
class nz.ac.vuw.ecs.swen225.gp23.application.Main--><a href="Main.html" target="_top" title="Main.html" xlink:actuate="onRequest" xlink:href="Main.html" xlink:show="new" xlink:title="Main.html" xlink:type="simple"><rect codeLine="13" fill="#FEFECE" filter="url(#f1i8ir43mhzuwd)" height="61.8359" id="nz.ac.vuw.ecs.swen225.gp23.application.Main" style="stroke: #A80036; stroke-width: 1.5;" width="116" x="302" y="362"/><ellipse cx="343.1" cy="378" fill="#ADD1B2" rx="11" ry="11" style="stroke: #A80036; stroke-width: 1.0;"/><path d="M345.8656,373.875 Q346.0219,373.6563 346.2094,373.5469 Q346.3969,373.4375 346.6156,373.4375 Q346.9906,373.4375 347.225,373.7031 Q347.4594,373.9531 347.4594,374.5625 L347.4594,376.0156 Q347.4594,376.625 347.225,376.8906 Q346.9906,377.1563 346.6156,377.1563 Q346.2719,377.1563 346.0688,376.9531 Q345.8656,376.7656 345.7563,376.25 Q345.7094,375.8906 345.5219,375.7031 Q345.1938,375.3281 344.5844,375.1094 Q343.975,374.8906 343.35,374.8906 Q342.5844,374.8906 341.9438,375.2188 Q341.3188,375.5469 340.8188,376.2969 Q340.3344,377.0469 340.3344,378.0781 L340.3344,379.1719 Q340.3344,380.4063 341.225,381.2344 Q342.1156,382.0469 343.7094,382.0469 Q344.6469,382.0469 345.3031,381.7969 Q345.6938,381.6406 346.1156,381.2031 Q346.3813,380.9375 346.5219,380.8594 Q346.6781,380.7813 346.8813,380.7813 Q347.2094,380.7813 347.4594,381.0469 Q347.725,381.2969 347.725,381.6406 Q347.725,381.9844 347.3813,382.3906 Q346.8813,382.9688 346.0844,383.2969 Q345.0063,383.75 343.7094,383.75 Q342.1938,383.75 340.9906,383.125 Q340.0063,382.625 339.3188,381.5625 Q338.6313,380.4844 338.6313,379.2031 L338.6313,378.0469 Q338.6313,376.7188 339.2406,375.5781 Q339.8656,374.4219 340.9594,373.8125 Q342.0531,373.1875 343.2875,373.1875 Q344.0219,373.1875 344.6625,373.3594 Q345.3188,373.5156 345.8656,373.875 Z "/><text fill="#000000" font-family="sans-serif" font-size="12" lengthAdjust="spacingAndGlyphs" textLength="26" x="362.9" y="382.9102">Main</text><line style="stroke: #A80036; stroke-width: 1.5;" x1="303" x2="417" y1="394" y2="394"/><line style="stroke: #A80036; stroke-width: 1.5;" x1="303" x2="417" y1="402" y2="402"/><ellipse cx="313" cy="413" fill="#84BE84" rx="3" ry="3" style="stroke: #038048; stroke-width: 1.0;"/><text fill="#000000" font-family="sans-serif" font-size="11" lengthAdjust="spacingAndGlyphs" text-decoration="underline" textLength="90" x="322" y="417.4189">main(String[]): void</text></a><!--MD5=[b08779566f346dad90b0ebf5c558afbf]
class nz.ac.vuw.ecs.swen225.gp23.application.GraphicalInterface--><a href="GraphicalInterface.html" target="_top" title="GraphicalInterface.html" xlink:actuate="onRequest" xlink:href="GraphicalInterface.html" xlink:show="new" xlink:title="GraphicalInterface.html" xlink:type="simple"><rect codeLine="17" fill="#FEFECE" filter="url(#f1i8ir43mhzuwd)" height="352.3906" id="nz.ac.vuw.ecs.swen225.gp23.application.GraphicalInterface" style="stroke: #A80036; stroke-width: 1.5;" width="232" x="35" y="217"/><ellipse cx="96.75" cy="233" fill="#ADD1B2" rx="11" ry="11" style="stroke: #A80036; stroke-width: 1.0;"/><path d="M99.5156,228.875 Q99.6719,228.6563 99.8594,228.5469 Q100.0469,228.4375 100.2656,228.4375 Q100.6406,228.4375 100.875,228.7031 Q101.1094,228.9531 101.1094,229.5625 L101.1094,231.0156 Q101.1094,231.625 100.875,231.8906 Q100.6406,232.1563 100.2656,232.1563 Q99.9219,232.1563 99.7188,231.9531 Q99.5156,231.7656 99.4063,231.25 Q99.3594,230.8906 99.1719,230.7031 Q98.8438,230.3281 98.2344,230.1094 Q97.625,229.8906 97,229.8906 Q96.2344,229.8906 95.5938,230.2188 Q94.9688,230.5469 94.4688,231.2969 Q93.9844,232.0469 93.9844,233.0781 L93.9844,234.1719 Q93.9844,235.4063 94.875,236.2344 Q95.7656,237.0469 97.3594,237.0469 Q98.2969,237.0469 98.9531,236.7969 Q99.3438,236.6406 99.7656,236.2031 Q100.0313,235.9375 100.1719,235.8594 Q100.3281,235.7813 100.5313,235.7813 Q100.8594,235.7813 101.1094,236.0469 Q101.375,236.2969 101.375,236.6406 Q101.375,236.9844 101.0313,237.3906 Q100.5313,237.9688 99.7344,238.2969 Q98.6563,238.75 97.3594,238.75 Q95.8438,238.75 94.6406,238.125 Q93.6563,237.625 92.9688,236.5625 Q92.2813,235.4844 92.2813,234.2031 L92.2813,233.0469 Q92.2813,231.7188 92.8906,230.5781 Q93.5156,229.4219 94.6094,228.8125 Q95.7031,228.1875 96.9375,228.1875 Q97.6719,228.1875 98.3125,228.3594 Q98.9688,228.5156 99.5156,228.875 Z "/><text fill="#000000" font-family="sans-serif" font-size="12" lengthAdjust="spacingAndGlyphs" textLength="100" x="117.25" y="237.9102">GraphicalInterface</text><line style="stroke: #A80036; stroke-width: 1.5;" x1="36" x2="266" y1="249" y2="249"/><line style="stroke: #A80036; stroke-width: 1.5;" x1="36" x2="266" y1="257" y2="257"/><ellipse cx="46" cy="268" fill="#84BE84" rx="3" ry="3" style="stroke: #038048; stroke-width: 1.0;"/><text fill="#000000" font-family="sans-serif" font-size="11" lengthAdjust="spacingAndGlyphs" textLength="150" x="55" y="272.4189">GraphicalInterface(Application)</text><ellipse cx="46" cy="281.8359" fill="#84BE84" rx="3" ry="3" style="stroke: #038048; stroke-width: 1.0;"/><text fill="#000000" font-family="sans-serif" font-size="11" lengthAdjust="spacingAndGlyphs" textLength="174" x="55" y="286.2549">displayMessage(String, String): void</text><ellipse cx="46" cy="295.6719" fill="#84BE84" rx="3" ry="3" style="stroke: #038048; stroke-width: 1.0;"/><text fill="#000000" font-family="sans-serif" font-size="11" lengthAdjust="spacingAndGlyphs" textLength="123" x="55" y="300.0908">helpMenuContents(): void</text><ellipse cx="46" cy="309.5078" fill="#84BE84" rx="3" ry="3" style="stroke: #038048; stroke-width: 1.0;"/><text fill="#000000" font-family="sans-serif" font-size="11" lengthAdjust="spacingAndGlyphs" textLength="153" x="55" y="313.9268">displayAboutMenu(): JMenuItem</text><ellipse cx="46" cy="323.3438" fill="#84BE84" rx="3" ry="3" style="stroke: #038048; stroke-width: 1.0;"/><text fill="#000000" font-family="sans-serif" font-size="11" lengthAdjust="spacingAndGlyphs" textLength="112" x="55" y="327.7627">updateInventory(): void</text><ellipse cx="46" cy="337.1797" fill="#84BE84" rx="3" ry="3" style="stroke: #038048; stroke-width: 1.0;"/><text fill="#000000" font-family="sans-serif" font-size="11" lengthAdjust="spacingAndGlyphs" textLength="97" x="55" y="341.5986">onNewGame(): void</text><ellipse cx="46" cy="351.0156" fill="#84BE84" rx="3" ry="3" style="stroke: #038048; stroke-width: 1.0;"/><text fill="#000000" font-family="sans-serif" font-size="11" lengthAdjust="spacingAndGlyphs" textLength="98" x="55" y="355.4346">onLoadGame(): void</text><ellipse cx="46" cy="364.8516" fill="#84BE84" rx="3" ry="3" style="stroke: #038048; stroke-width: 1.0;"/><text fill="#000000" font-family="sans-serif" font-size="11" lengthAdjust="spacingAndGlyphs" textLength="199" x="55" y="369.2705">onLoadGameNoGui(String, boolean): void</text><ellipse cx="46" cy="378.6875" fill="#84BE84" rx="3" ry="3" style="stroke: #038048; stroke-width: 1.0;"/><text fill="#000000" font-family="sans-serif" font-size="11" lengthAdjust="spacingAndGlyphs" textLength="134" x="55" y="383.1064">onStopGame(boolean): void</text><ellipse cx="46" cy="392.5234" fill="#84BE84" rx="3" ry="3" style="stroke: #038048; stroke-width: 1.0;"/><text fill="#000000" font-family="sans-serif" font-size="11" lengthAdjust="spacingAndGlyphs" textLength="142" x="55" y="396.9424">onPauseGame(boolean): void</text><ellipse cx="46" cy="406.3594" fill="#84BE84" rx="3" ry="3" style="stroke: #038048; stroke-width: 1.0;"/><text fill="#000000" font-family="sans-serif" font-size="11" lengthAdjust="spacingAndGlyphs" textLength="102" x="55" y="410.7783">updateDisplay(): void</text><ellipse cx="46" cy="420.1953" fill="#84BE84" rx="3" ry="3" style="stroke: #038048; stroke-width: 1.0;"/><text fill="#000000" font-family="sans-serif" font-size="11" lengthAdjust="spacingAndGlyphs" textLength="206" x="55" y="424.6143">levelCompleteMessage(int, int, int, int): void</text><ellipse cx="46" cy="434.0313" fill="#84BE84" rx="3" ry="3" style="stroke: #038048; stroke-width: 1.0;"/><text fill="#000000" font-family="sans-serif" font-size="11" lengthAdjust="spacingAndGlyphs" textLength="145" x="55" y="438.4502">outOfTime(String, String): void</text><ellipse cx="46" cy="447.8672" fill="#84BE84" rx="3" ry="3" style="stroke: #038048; stroke-width: 1.0;"/><text fill="#000000" font-family="sans-serif" font-size="11" lengthAdjust="spacingAndGlyphs" textLength="127" x="55" y="452.2861">keyTyped(KeyEvent): void</text><ellipse cx="46" cy="461.7031" fill="#84BE84" rx="3" ry="3" style="stroke: #038048; stroke-width: 1.0;"/><text fill="#000000" font-family="sans-serif" font-size="11" lengthAdjust="spacingAndGlyphs" textLength="137" x="55" y="466.1221">keyPressed(KeyEvent): void</text><ellipse cx="46" cy="475.5391" fill="#84BE84" rx="3" ry="3" style="stroke: #038048; stroke-width: 1.0;"/><text fill="#000000" font-family="sans-serif" font-size="11" lengthAdjust="spacingAndGlyphs" textLength="142" x="55" y="479.958">keyReleased(KeyEvent): void</text><ellipse cx="46" cy="489.375" fill="#84BE84" rx="3" ry="3" style="stroke: #038048; stroke-width: 1.0;"/><text fill="#000000" font-family="sans-serif" font-size="11" lengthAdjust="spacingAndGlyphs" textLength="151" x="55" y="493.7939">getRenderPanel(): RenderPanel</text><ellipse cx="46" cy="503.2109" fill="#84BE84" rx="3" ry="3" style="stroke: #038048; stroke-width: 1.0;"/><text fill="#000000" font-family="sans-serif" font-size="11" lengthAdjust="spacingAndGlyphs" textLength="171" x="55" y="507.6299">setRenderPanel(RenderPanel): void</text><ellipse cx="46" cy="517.0469" fill="#84BE84" rx="3" ry="3" style="stroke: #038048; stroke-width: 1.0;"/><text fill="#000000" font-family="sans-serif" font-size="11" lengthAdjust="spacingAndGlyphs" textLength="112" x="55" y="521.4658">getLevelLabel(): JLabel</text><ellipse cx="46" cy="530.8828" fill="#84BE84" rx="3" ry="3" style="stroke: #038048; stroke-width: 1.0;"/><text fill="#000000" font-family="sans-serif" font-size="11" lengthAdjust="spacingAndGlyphs" textLength="108" x="55" y="535.3018">setTimeLabel(int): void</text><ellipse cx="46" cy="544.7188" fill="#84BE84" rx="3" ry="3" style="stroke: #038048; stroke-width: 1.0;"/><text fill="#000000" font-family="sans-serif" font-size="11" lengthAdjust="spacingAndGlyphs" textLength="108" x="55" y="549.1377">getTimeLabel(): JLabel</text><ellipse cx="46" cy="558.5547" fill="#84BE84" rx="3" ry="3" style="stroke: #038048; stroke-width: 1.0;"/><text fill="#000000" font-family="sans-serif" font-size="11" lengthAdjust="spacingAndGlyphs" textLength="132" x="55" y="562.9736">setChipsLeftLabel(int): void</text></a><!--MD5=[c34cad6071ee17c8d16fb3800ec1f563]
class nz.ac.vuw.ecs.swen225.gp23.application.Game--><a href="Game.html" target="_top" title="Game.html" xlink:actuate="onRequest" xlink:href="Game.html" xlink:show="new" xlink:title="Game.html" xlink:type="simple"><rect codeLine="42" fill="#FEFECE" filter="url(#f1i8ir43mhzuwd)" height="255.5391" id="nz.ac.vuw.ecs.swen225.gp23.application.Game" style="stroke: #A80036; stroke-width: 1.5;" width="368" x="35" y="647"/><ellipse cx="197.75" cy="663" fill="#ADD1B2" rx="11" ry="11" style="stroke: #A80036; stroke-width: 1.0;"/><path d="M200.5156,658.875 Q200.6719,658.6563 200.8594,658.5469 Q201.0469,658.4375 201.2656,658.4375 Q201.6406,658.4375 201.875,658.7031 Q202.1094,658.9531 202.1094,659.5625 L202.1094,661.0156 Q202.1094,661.625 201.875,661.8906 Q201.6406,662.1563 201.2656,662.1563 Q200.9219,662.1563 200.7188,661.9531 Q200.5156,661.7656 200.4063,661.25 Q200.3594,660.8906 200.1719,660.7031 Q199.8438,660.3281 199.2344,660.1094 Q198.625,659.8906 198,659.8906 Q197.2344,659.8906 196.5938,660.2188 Q195.9688,660.5469 195.4688,661.2969 Q194.9844,662.0469 194.9844,663.0781 L194.9844,664.1719 Q194.9844,665.4063 195.875,666.2344 Q196.7656,667.0469 198.3594,667.0469 Q199.2969,667.0469 199.9531,666.7969 Q200.3438,666.6406 200.7656,666.2031 Q201.0313,665.9375 201.1719,665.8594 Q201.3281,665.7813 201.5313,665.7813 Q201.8594,665.7813 202.1094,666.0469 Q202.375,666.2969 202.375,666.6406 Q202.375,666.9844 202.0313,667.3906 Q201.5313,667.9688 200.7344,668.2969 Q199.6563,668.75 198.3594,668.75 Q196.8438,668.75 195.6406,668.125 Q194.6563,667.625 193.9688,666.5625 Q193.2813,665.4844 193.2813,664.2031 L193.2813,663.0469 Q193.2813,661.7188 193.8906,660.5781 Q194.5156,659.4219 195.6094,658.8125 Q196.7031,658.1875 197.9375,658.1875 Q198.6719,658.1875 199.3125,658.3594 Q199.9688,658.5156 200.5156,658.875 Z "/><text fill="#000000" font-family="sans-serif" font-size="12" lengthAdjust="spacingAndGlyphs" textLength="34" x="218.25" y="667.9102">Game</text><line style="stroke: #A80036; stroke-width: 1.5;" x1="36" x2="402" y1="679" y2="679"/><line style="stroke: #A80036; stroke-width: 1.5;" x1="36" x2="402" y1="687" y2="687"/><ellipse cx="46" cy="698" fill="#84BE84" rx="3" ry="3" style="stroke: #038048; stroke-width: 1.0;"/><text fill="#000000" font-family="sans-serif" font-size="11" lengthAdjust="spacingAndGlyphs" textLength="342" x="55" y="702.4189">Game(int, int, GraphicalInterface, Board, ChipAudioModule, Application)</text><ellipse cx="46" cy="711.8359" fill="#84BE84" rx="3" ry="3" style="stroke: #038048; stroke-width: 1.0;"/><text fill="#000000" font-family="sans-serif" font-size="11" lengthAdjust="spacingAndGlyphs" textLength="109" x="55" y="716.2549">printOutBoard(): String</text><ellipse cx="46" cy="725.6719" fill="#84BE84" rx="3" ry="3" style="stroke: #038048; stroke-width: 1.0;"/><text fill="#000000" font-family="sans-serif" font-size="11" lengthAdjust="spacingAndGlyphs" textLength="76" x="55" y="730.0908">runTimer(): void</text><ellipse cx="46" cy="739.5078" fill="#84BE84" rx="3" ry="3" style="stroke: #038048; stroke-width: 1.0;"/><text fill="#000000" font-family="sans-serif" font-size="11" lengthAdjust="spacingAndGlyphs" textLength="143" x="55" y="743.9268">onMovement(Directions): void</text><ellipse cx="46" cy="753.3438" fill="#84BE84" rx="3" ry="3" style="stroke: #038048; stroke-width: 1.0;"/><text fill="#000000" font-family="sans-serif" font-size="11" lengthAdjust="spacingAndGlyphs" textLength="86" x="55" y="757.7627">saveGame(): void</text><ellipse cx="46" cy="767.1797" fill="#84BE84" rx="3" ry="3" style="stroke: #038048; stroke-width: 1.0;"/><text fill="#000000" font-family="sans-serif" font-size="11" lengthAdjust="spacingAndGlyphs" textLength="81" x="55" y="771.5986">getTimeLeft(): int</text><ellipse cx="46" cy="781.0156" fill="#84BE84" rx="3" ry="3" style="stroke: #038048; stroke-width: 1.0;"/><text fill="#000000" font-family="sans-serif" font-size="11" lengthAdjust="spacingAndGlyphs" textLength="104" x="55" y="785.4346">terminateTimer(): void</text><ellipse cx="46" cy="794.8516" fill="#84BE84" rx="3" ry="3" style="stroke: #038048; stroke-width: 1.0;"/><text fill="#000000" font-family="sans-serif" font-size="11" lengthAdjust="spacingAndGlyphs" textLength="151" x="55" y="799.2705">setGamePaused(boolean): void</text><ellipse cx="46" cy="808.6875" fill="#84BE84" rx="3" ry="3" style="stroke: #038048; stroke-width: 1.0;"/><text fill="#000000" font-family="sans-serif" font-size="11" lengthAdjust="spacingAndGlyphs" textLength="87" x="55" y="813.1064">getBoard(): Board</text><ellipse cx="46" cy="822.5234" fill="#84BE84" rx="3" ry="3" style="stroke: #038048; stroke-width: 1.0;"/><text fill="#000000" font-family="sans-serif" font-size="11" lengthAdjust="spacingAndGlyphs" textLength="89" x="55" y="826.9424">getPlayer(): Player</text><ellipse cx="46" cy="836.3594" fill="#84BE84" rx="3" ry="3" style="stroke: #038048; stroke-width: 1.0;"/><text fill="#000000" font-family="sans-serif" font-size="11" lengthAdjust="spacingAndGlyphs" textLength="101" x="55" y="840.7783">setTimeLeft(int): void</text><ellipse cx="46" cy="850.1953" fill="#84BE84" rx="3" ry="3" style="stroke: #038048; stroke-width: 1.0;"/><text fill="#000000" font-family="sans-serif" font-size="11" lengthAdjust="spacingAndGlyphs" textLength="103" x="55" y="854.6143">getLevelNumber(): int</text><ellipse cx="46" cy="864.0313" fill="#84BE84" rx="3" ry="3" style="stroke: #038048; stroke-width: 1.0;"/><text fill="#000000" font-family="sans-serif" font-size="11" lengthAdjust="spacingAndGlyphs" textLength="96" x="55" y="868.4502">isPaused(): boolean</text><ellipse cx="46" cy="877.8672" fill="#84BE84" rx="3" ry="3" style="stroke: #038048; stroke-width: 1.0;"/><text fill="#000000" font-family="sans-serif" font-size="11" lengthAdjust="spacingAndGlyphs" textLength="140" x="55" y="882.2861">isRunningTest(boolean): void</text><ellipse cx="46" cy="891.7031" fill="#84BE84" rx="3" ry="3" style="stroke: #038048; stroke-width: 1.0;"/><text fill="#000000" font-family="sans-serif" font-size="11" lengthAdjust="spacingAndGlyphs" textLength="127" x="55" y="896.1221">getRunningTest(): boolean</text></a><!--MD5=[18a7562403221f513ca44e0f82c4c17a]
class javax.swing.JFrame--><rect codeLine="68" fill="#FEFECE" filter="url(#f1i8ir43mhzuwd)" height="89.5078" id="javax.swing.JFrame" style="stroke: #A80036; stroke-width: 1.5;" width="212" x="32" y="42"/><ellipse cx="112.75" cy="58" fill="#ADD1B2" rx="11" ry="11" style="stroke: #A80036; stroke-width: 1.0;"/><path d="M115.5156,53.875 Q115.6719,53.6563 115.8594,53.5469 Q116.0469,53.4375 116.2656,53.4375 Q116.6406,53.4375 116.875,53.7031 Q117.1094,53.9531 117.1094,54.5625 L117.1094,56.0156 Q117.1094,56.625 116.875,56.8906 Q116.6406,57.1563 116.2656,57.1563 Q115.9219,57.1563 115.7188,56.9531 Q115.5156,56.7656 115.4063,56.25 Q115.3594,55.8906 115.1719,55.7031 Q114.8438,55.3281 114.2344,55.1094 Q113.625,54.8906 113,54.8906 Q112.2344,54.8906 111.5938,55.2188 Q110.9688,55.5469 110.4688,56.2969 Q109.9844,57.0469 109.9844,58.0781 L109.9844,59.1719 Q109.9844,60.4063 110.875,61.2344 Q111.7656,62.0469 113.3594,62.0469 Q114.2969,62.0469 114.9531,61.7969 Q115.3438,61.6406 115.7656,61.2031 Q116.0313,60.9375 116.1719,60.8594 Q116.3281,60.7813 116.5313,60.7813 Q116.8594,60.7813 117.1094,61.0469 Q117.375,61.2969 117.375,61.6406 Q117.375,61.9844 117.0313,62.3906 Q116.5313,62.9688 115.7344,63.2969 Q114.6563,63.75 113.3594,63.75 Q111.8438,63.75 110.6406,63.125 Q109.6563,62.625 108.9688,61.5625 Q108.2813,60.4844 108.2813,59.2031 L108.2813,58.0469 Q108.2813,56.7188 108.8906,55.5781 Q109.5156,54.4219 110.6094,53.8125 Q111.7031,53.1875 112.9375,53.1875 Q113.6719,53.1875 114.3125,53.3594 Q114.9688,53.5156 115.5156,53.875 Z "/><text fill="#000000" font-family="sans-serif" font-size="12" lengthAdjust="spacingAndGlyphs" textLength="42" x="133.25" y="62.9102">JFrame</text><line style="stroke: #A80036; stroke-width: 1.5;" x1="33" x2="243" y1="74" y2="74"/><polygon fill="none" points="43,80,47,84,43,88,39,84" style="stroke: #B38D22; stroke-width: 1.0;"/><text fill="#000000" font-family="sans-serif" font-size="11" lengthAdjust="spacingAndGlyphs" textLength="100" x="52" y="89.4189">rootPane: JRootPane</text><polygon fill="none" points="43,93.8359,47,97.8359,43,101.8359,39,97.8359" style="stroke: #B38D22; stroke-width: 1.0;"/><text fill="#000000" font-family="sans-serif" font-size="11" lengthAdjust="spacingAndGlyphs" textLength="169" x="52" y="103.2549">rootPaneCheckingEnabled: boolean</text><polygon fill="none" points="43,107.6719,47,111.6719,43,115.6719,39,111.6719" style="stroke: #B38D22; stroke-width: 1.0;"/><text fill="#000000" font-family="sans-serif" font-size="11" lengthAdjust="spacingAndGlyphs" textLength="186" x="52" y="117.0908">accessibleContext: AccessibleContext</text><line style="stroke: #A80036; stroke-width: 1.5;" x1="33" x2="243" y1="123.5078" y2="123.5078"/><!--MD5=[3eb55d915ce4c988cc6fe2a782a0fcdf]
class java.awt.event.KeyListener--><rect codeLine="76" fill="#FEFECE" filter="url(#f1i8ir43mhzuwd)" height="89.5078" id="java.awt.event.KeyListener" style="stroke: #A80036; stroke-width: 1.5;" width="169" x="300.5" y="42"/><ellipse cx="348.25" cy="58" fill="#B4A7E5" rx="11" ry="11" style="stroke: #A80036; stroke-width: 1.0;"/><path d="M349.2031,54.6406 L349.2031,61.2969 L350.9219,61.2969 Q351.5313,61.2969 351.7969,61.5313 Q352.0625,61.7656 352.0625,62.1563 Q352.0625,62.5313 351.7969,62.7656 Q351.5313,63 350.9219,63 L345.7813,63 Q345.1719,63 344.9063,62.7656 Q344.6406,62.5313 344.6406,62.1406 Q344.6406,61.7656 344.9063,61.5313 Q345.1719,61.2969 345.7813,61.2969 L347.5,61.2969 L347.5,54.6406 L345.7813,54.6406 Q345.1719,54.6406 344.9063,54.4063 Q344.6406,54.1719 344.6406,53.7813 Q344.6406,53.4063 344.9063,53.1719 Q345.1719,52.9375 345.7813,52.9375 L350.9219,52.9375 Q351.5313,52.9375 351.7969,53.1719 Q352.0625,53.4063 352.0625,53.7813 Q352.0625,54.1719 351.7969,54.4063 Q351.5313,54.6406 350.9219,54.6406 L349.2031,54.6406 Z "/><text fill="#000000" font-family="sans-serif" font-size="12" font-style="italic" lengthAdjust="spacingAndGlyphs" textLength="65" x="368.75" y="62.9102">KeyListener</text><line style="stroke: #A80036; stroke-width: 1.5;" x1="301.5" x2="468.5" y1="74" y2="74"/><line style="stroke: #A80036; stroke-width: 1.5;" x1="301.5" x2="468.5" y1="82" y2="82"/><ellipse cx="311.5" cy="93" fill="#84BE84" rx="3" ry="3" style="stroke: #038048; stroke-width: 1.0;"/><text fill="#000000" font-family="sans-serif" font-size="11" font-style="italic" lengthAdjust="spacingAndGlyphs" textLength="126" x="320.5" y="97.4189">keyTyped(KeyEvent): void</text><ellipse cx="311.5" cy="106.8359" fill="#84BE84" rx="3" ry="3" style="stroke: #038048; stroke-width: 1.0;"/><text fill="#000000" font-family="sans-serif" font-size="11" font-style="italic" lengthAdjust="spacingAndGlyphs" textLength="137" x="320.5" y="111.2549">keyPressed(KeyEvent): void</text><ellipse cx="311.5" cy="120.6719" fill="#84BE84" rx="3" ry="3" style="stroke: #038048; stroke-width: 1.0;"/><text fill="#000000" font-family="sans-serif" font-size="11" font-style="italic" lengthAdjust="spacingAndGlyphs" textLength="143" x="320.5" y="125.0908">keyReleased(KeyEvent): void</text><!--MD5=[28a59340ec8b64a804b6971cf5004d29]
link nz.ac.vuw.ecs.swen225.gp23.application.Application to nz.ac.vuw.ecs.swen225.gp23.application.Application.GameStates--><path codeLine="60" d="M522.92,431.38 C514.27,475.59 502.26,551.46 506,617 C508.23,655.97 513.54,700.11 517.82,731.65 " fill="none" id="nz.ac.vuw.ecs.swen225.gp23.application.Application-to-nz.ac.vuw.ecs.swen225.gp23.application.Application.GameStates" style="stroke: #A80036; stroke-width: 1.0;"/><polygon fill="#A80036" points="518.55,736.99,521.3022,727.5335,517.877,732.0355,513.375,728.6103,518.55,736.99" style="stroke: #A80036; stroke-width: 1.0;"/><text fill="#000000" font-family="sans-serif" font-size="13" lengthAdjust="spacingAndGlyphs" textLength="29" x="507" y="613.4951">state</text><!--MD5=[44ed483fabee9d80604d44573136e39a]
reverse link nz.ac.vuw.ecs.swen225.gp23.application.Application to nz.ac.vuw.ecs.swen225.gp23.application.Application.GameStates--><path codeLine="61" d="M536.25,446.12 C540.1,491.32 544.16,558.5 541,617 C538.78,658.2 533.29,705.22 529.15,736.98 " fill="none" id="nz.ac.vuw.ecs.swen225.gp23.application.Application-backto-nz.ac.vuw.ecs.swen225.gp23.application.Application.GameStates" style="stroke: #A80036; stroke-width: 1.0;"/><ellipse cx="535.616" cy="439.0679" fill="#FFFFFF" rx="8" ry="8" style="stroke: #A80036; stroke-width: 1.0;"/><line style="stroke: #A80036; stroke-width: 1.0;" x1="536.3321" x2="534.9" y1="447.0358" y2="431.1"/><line style="stroke: #A80036; stroke-width: 1.0;" x1="527.6482" x2="543.5839" y1="439.7839" y2="438.3518"/><!--MD5=[02b83f41400ba56955f16260378dac8e]
reverse link javax.swing.JFrame to nz.ac.vuw.ecs.swen225.gp23.application.GraphicalInterface--><path codeLine="62" d="M140.75,152.3 C141.58,171.61 142.52,193.79 143.5,216.7 " fill="none" id="javax.swing.JFrame-backto-nz.ac.vuw.ecs.swen225.gp23.application.GraphicalInterface" style="stroke: #A80036; stroke-width: 1.0;"/><polygon fill="none" points="133.75,152.49,139.89,132.2,147.74,151.89,133.75,152.49" style="stroke: #A80036; stroke-width: 1.0;"/><!--MD5=[98ba6a3e9ba3acff6c91efeea780cbd9]
reverse link java.awt.event.KeyListener to nz.ac.vuw.ecs.swen225.gp23.application.GraphicalInterface--><path codeLine="63" d="M311.83,145.4 C302.34,154.19 293.12,163.51 285,173 C273.26,186.72 261.89,201.58 251.05,216.87 " fill="none" id="java.awt.event.KeyListener-backto-nz.ac.vuw.ecs.swen225.gp23.application.GraphicalInterface" style="stroke: #A80036; stroke-width: 1.0; stroke-dasharray: 7.0,7.0;"/><polygon fill="none" points="307.22,140.13,326.82,132.08,316.52,150.59,307.22,140.13" style="stroke: #A80036; stroke-width: 1.0;"/><!--MD5=[7fc7ba200d80ca2a4031c7c5535b9cea]
link nz.ac.vuw.ecs.swen225.gp23.application.GraphicalInterface to nz.ac.vuw.ecs.swen225.gp23.application.Game--><path codeLine="64" d="M182.36,569.26 C186.74,593.7 191.17,618.47 195.37,641.93 " fill="none" id="nz.ac.vuw.ecs.swen225.gp23.application.GraphicalInterface-to-nz.ac.vuw.ecs.swen225.gp23.application.Game" style="stroke: #A80036; stroke-width: 1.0;"/><polygon fill="#A80036" points="196.26,646.92,198.6271,637.3598,195.387,641.9968,190.75,638.7567,196.26,646.92" style="stroke: #A80036; stroke-width: 1.0;"/><text fill="#000000" font-family="sans-serif" font-size="13" lengthAdjust="spacingAndGlyphs" textLength="75" x="190" y="613.4951">currentGame</text><text fill="#888888" font-family="sans-serif" font-size="10" lengthAdjust="spacingAndGlyphs" textLength="190" x="219.5" y="935.3809">UMLDoclet 2.0.12, PlantUML 1.2020.16</text><!--MD5=[f15170e4d9cf928b54084877c1488dc1]
@startuml
    namespace nz.ac.vuw.ecs.swen225.gp23.application {

        class Application [[Application.html]] {
            +transitionToRunning(): void
            +transitionToInit(): void
        }

        enum nz.ac.vuw.ecs.swen225.gp23.application.Application.GameStates [[Application.GameStates.html]] {
            {static} +IDLE
            {static} +RUNNING
        }

        class Main [[Main.html]] {
            {static} +main(String[]): void
        }

        class GraphicalInterface [[GraphicalInterface.html]] {
            +GraphicalInterface(Application)
            +displayMessage(String, String): void
            +helpMenuContents(): void
            +displayAboutMenu(): JMenuItem
            +updateInventory(): void
            +onNewGame(): void
            +onLoadGame(): void
            +onLoadGameNoGui(String, boolean): void
            +onStopGame(boolean): void
            +onPauseGame(boolean): void
            +updateDisplay(): void
            +levelCompleteMessage(int, int, int, int): void
            +outOfTime(String, String): void
            +keyTyped(KeyEvent): void
            +keyPressed(KeyEvent): void
            +keyReleased(KeyEvent): void
            +getRenderPanel(): RenderPanel
            +setRenderPanel(RenderPanel): void
            +getLevelLabel(): JLabel
            +setTimeLabel(int): void
            +getTimeLabel(): JLabel
            +setChipsLeftLabel(int): void
        }

        class Game [[Game.html]] {
            +Game(int, int, GraphicalInterface, Board, ChipAudioModule, Application)
            +printOutBoard(): String
            +runTimer(): void
            +onMovement(Directions): void
            +saveGame(): void
            +getTimeLeft(): int
            +terminateTimer(): void
            +setGamePaused(boolean): void
            +getBoard(): Board
            +getPlayer(): Player
            +setTimeLeft(int): void
            +getLevelNumber(): int
            +isPaused(): boolean
            +isRunningTest(boolean): void
            +getRunningTest(): boolean
        }

        Application - -> nz.ac.vuw.ecs.swen225.gp23.application.Application.GameStates: state
        Application +- - nz.ac.vuw.ecs.swen225.gp23.application.Application.GameStates
        javax.swing.JFrame <|- - GraphicalInterface
        java.awt.event.KeyListener <|.. GraphicalInterface
        GraphicalInterface - -> Game: currentGame
    }

    namespace javax.swing {
        class JFrame {
            #rootPane: JRootPane
            #rootPaneCheckingEnabled: boolean
            #accessibleContext: AccessibleContext
        }
    }

    namespace java.awt.event {
        interface KeyListener {
            {abstract} +keyTyped(KeyEvent): void
            {abstract} +keyPressed(KeyEvent): void
            {abstract} +keyReleased(KeyEvent): void
        }
    }

    center footer UMLDoclet 2.0.12, PlantUML 1.2020.16
@enduml

PlantUML version 1.2020.16(Mon Aug 24 08:20:43 NZST 2020)
(APACHE source distribution)
Java Runtime: Java(TM) SE Runtime Environment
JVM: Java HotSpot(TM) 64-Bit Server VM
Default Encoding: Cp1252
Language: en
Country: NZ
--></g></svg>