<?xml version="1.0" encoding="UTF-8" standalone="no"?><svg xmlns="http://www.w3.org/2000/svg" xmlns:xlink="http://www.w3.org/1999/xlink" contentScriptType="application/ecmascript" contentStyleType="text/css" height="477px" preserveAspectRatio="none" style="width:457px;height:477px;" version="1.1" viewBox="0 0 457 477" width="457px" zoomAndPan="magnify"><defs><filter height="300%" id="fp08631gyw8vr" width="300%" x="-1" y="-1"><feGaussianBlur result="blurOut" stdDeviation="2.0"/><feColorMatrix in="blurOut" result="blurOut2" type="matrix" values="0 0 0 0 0 0 0 0 0 0 0 0 0 0 0 0 0 0 .4 0"/><feOffset dx="4.0" dy="4.0" in="blurOut2" result="blurOut3"/><feBlend in="SourceGraphic" in2="blurOut3" mode="normal"/></filter></defs><g><!--MD5=[6e7a21acf924966514c6cad752e41039]
class nz.ac.vuw.ecs.swen225.gp23.maze.Tile--><a href="Tile.html" target="_top" title="Tile.html" xlink:actuate="onRequest" xlink:href="Tile.html" xlink:show="new" xlink:title="Tile.html" xlink:type="simple"><rect codeLine="5" fill="#FEFECE" filter="url(#fp08631gyw8vr)" height="332.9063" id="nz.ac.vuw.ecs.swen225.gp23.maze.Tile" style="stroke: #A80036; stroke-width: 1.5;" width="198" x="123" y="7"/><ellipse cx="138" cy="27.0938" fill="#A9DCDF" rx="11" ry="11" style="stroke: #A80036; stroke-width: 1.0;"/><path d="M140.1875,28.8594 L136.0469,28.8594 L135.625,29.8906 L136.0469,29.8906 Q136.6563,29.8906 136.9219,30.125 Q137.1875,30.3594 137.1875,30.75 Q137.1875,31.125 136.9219,31.3594 Q136.6563,31.5938 136.0469,31.5938 L133.75,31.5938 Q133.1406,31.5938 132.8906,31.3594 Q132.625,31.125 132.625,30.7344 Q132.625,30.3594 132.9063,30.125 Q133.1719,29.875 133.7969,29.8906 L136.4688,23.2344 L135.3594,23.2344 Q134.75,23.2344 134.4844,23 Q134.2188,22.7656 134.2188,22.375 Q134.2188,22 134.4844,21.7656 Q134.75,21.5313 135.3594,21.5313 L139.0313,21.5313 L142.4219,29.8906 Q143.0156,29.8906 143.2031,30.0313 Q143.5938,30.2969 143.5938,30.75 Q143.5938,31.125 143.3281,31.3594 Q143.0781,31.5938 142.4688,31.5938 L140.1719,31.5938 Q139.5625,31.5938 139.2969,31.3594 Q139.0313,31.125 139.0313,30.7344 Q139.0313,30.3594 139.2969,30.125 Q139.5625,29.8906 140.1719,29.8906 L140.5938,29.8906 L140.1875,28.8594 Z M139.4688,27.1563 L138.1094,23.7813 L136.7344,27.1563 L139.4688,27.1563 Z "/><text fill="#000000" font-family="sans-serif" font-size="14" font-style="italic" lengthAdjust="spacingAndGlyphs" textLength="23" x="223.5" y="26.5332">Tile</text><text fill="#000000" font-family="sans-serif" font-size="10" font-style="italic" lengthAdjust="spacingAndGlyphs" textLength="166" x="152" y="39.9902">nz.ac.vuw.ecs.swen225.gp23.maze</text><line style="stroke: #A80036; stroke-width: 1.5;" x1="124" x2="320" y1="47.1875" y2="47.1875"/><ellipse cx="134" cy="58.1875" fill="none" rx="3" ry="3" style="stroke: #038048; stroke-width: 1.0;"/><text fill="#000000" font-family="sans-serif" font-size="11" lengthAdjust="spacingAndGlyphs" textLength="96" x="143" y="62.6064">isPassable: boolean</text><ellipse cx="134" cy="72.0234" fill="none" rx="3" ry="3" style="stroke: #038048; stroke-width: 1.0;"/><text fill="#000000" font-family="sans-serif" font-size="11" lengthAdjust="spacingAndGlyphs" textLength="88" x="143" y="76.4424">hasEntity: boolean</text><ellipse cx="134" cy="85.8594" fill="none" rx="3" ry="3" style="stroke: #038048; stroke-width: 1.0;"/><text fill="#000000" font-family="sans-serif" font-size="11" lengthAdjust="spacingAndGlyphs" textLength="122" x="143" y="90.2783">entityDirection: Directions</text><ellipse cx="134" cy="99.6953" fill="none" rx="3" ry="3" style="stroke: #038048; stroke-width: 1.0;"/><text fill="#000000" font-family="sans-serif" font-size="11" lengthAdjust="spacingAndGlyphs" textLength="54" x="143" y="104.1143">vertLoc: int</text><ellipse cx="134" cy="113.5313" fill="none" rx="3" ry="3" style="stroke: #038048; stroke-width: 1.0;"/><text fill="#000000" font-family="sans-serif" font-size="11" lengthAdjust="spacingAndGlyphs" textLength="59" x="143" y="117.9502">horizLoc: int</text><ellipse cx="134" cy="127.3672" fill="none" rx="3" ry="3" style="stroke: #038048; stroke-width: 1.0;"/><text fill="#000000" font-family="sans-serif" font-size="11" lengthAdjust="spacingAndGlyphs" textLength="97" x="143" y="131.7861">currentImage: String</text><ellipse cx="134" cy="141.2031" fill="none" rx="3" ry="3" style="stroke: #038048; stroke-width: 1.0;"/><text fill="#000000" font-family="sans-serif" font-size="11" lengthAdjust="spacingAndGlyphs" textLength="95" x="143" y="145.6221">defaultImage: String</text><ellipse cx="134" cy="155.0391" fill="none" rx="3" ry="3" style="stroke: #038048; stroke-width: 1.0;"/><text fill="#000000" font-family="sans-serif" font-size="11" lengthAdjust="spacingAndGlyphs" textLength="49" x="143" y="159.458">type: Tiles</text><ellipse cx="134" cy="168.875" fill="none" rx="3" ry="3" style="stroke: #038048; stroke-width: 1.0;"/><text fill="#000000" font-family="sans-serif" font-size="11" lengthAdjust="spacingAndGlyphs" textLength="114" x="143" y="173.2939">adjacentTiles: List&lt;Tile&gt;</text><line style="stroke: #A80036; stroke-width: 1.5;" x1="124" x2="320" y1="179.7109" y2="179.7109"/><ellipse cx="134" cy="190.7109" fill="#84BE84" rx="3" ry="3" style="stroke: #038048; stroke-width: 1.0;"/><text fill="#000000" font-family="sans-serif" font-size="11" lengthAdjust="spacingAndGlyphs" textLength="46" x="143" y="195.1299">Tile(Tiles)</text><ellipse cx="134" cy="204.5469" fill="#84BE84" rx="3" ry="3" style="stroke: #038048; stroke-width: 1.0;"/><text fill="#000000" font-family="sans-serif" font-size="11" lengthAdjust="spacingAndGlyphs" textLength="140" x="143" y="208.9658">setEntityPresent(String): void</text><ellipse cx="134" cy="218.3828" fill="#84BE84" rx="3" ry="3" style="stroke: #038048; stroke-width: 1.0;"/><text fill="#000000" font-family="sans-serif" font-size="11" lengthAdjust="spacingAndGlyphs" textLength="165" x="143" y="222.8018">setEntityDirection(Directions): void</text><ellipse cx="134" cy="232.2188" fill="#84BE84" rx="3" ry="3" style="stroke: #038048; stroke-width: 1.0;"/><text fill="#000000" font-family="sans-serif" font-size="11" lengthAdjust="spacingAndGlyphs" textLength="110" x="143" y="236.6377">setEntityAbsent(): void</text><ellipse cx="134" cy="246.0547" fill="#84BE84" rx="3" ry="3" style="stroke: #038048; stroke-width: 1.0;"/><text fill="#000000" font-family="sans-serif" font-size="11" font-style="italic" lengthAdjust="spacingAndGlyphs" textLength="115" x="143" y="250.4736">action(Player): boolean</text><ellipse cx="134" cy="259.8906" fill="#84BE84" rx="3" ry="3" style="stroke: #038048; stroke-width: 1.0;"/><text fill="#000000" font-family="sans-serif" font-size="11" lengthAdjust="spacingAndGlyphs" textLength="135" x="143" y="264.3096">getDirection(Directions): Tile</text><ellipse cx="134" cy="273.7266" fill="#84BE84" rx="3" ry="3" style="stroke: #038048; stroke-width: 1.0;"/><text fill="#000000" font-family="sans-serif" font-size="11" lengthAdjust="spacingAndGlyphs" textLength="83" x="143" y="278.1455">getHorizLoc(): int</text><ellipse cx="134" cy="287.5625" fill="#84BE84" rx="3" ry="3" style="stroke: #038048; stroke-width: 1.0;"/><text fill="#000000" font-family="sans-serif" font-size="11" lengthAdjust="spacingAndGlyphs" textLength="103" x="143" y="291.9814">setHorizLoc(int): void</text><ellipse cx="134" cy="301.3984" fill="#84BE84" rx="3" ry="3" style="stroke: #038048; stroke-width: 1.0;"/><text fill="#000000" font-family="sans-serif" font-size="11" lengthAdjust="spacingAndGlyphs" textLength="79" x="143" y="305.8174">getVertLoc(): int</text><ellipse cx="134" cy="315.2344" fill="#84BE84" rx="3" ry="3" style="stroke: #038048; stroke-width: 1.0;"/><text fill="#000000" font-family="sans-serif" font-size="11" lengthAdjust="spacingAndGlyphs" textLength="99" x="143" y="319.6533">setVertLoc(int): void</text><ellipse cx="134" cy="329.0703" fill="#84BE84" rx="3" ry="3" style="stroke: #038048; stroke-width: 1.0;"/><text fill="#000000" font-family="sans-serif" font-size="11" lengthAdjust="spacingAndGlyphs" textLength="121" x="143" y="333.4893">getCurrentImage(): String</text></a><!--MD5=[caf371069f8e6e8ecd12fc431a58d673]
class nz.ac.vuw.ecs.swen225.gp23.maze.Tile.Tiles--><a href="Tile.Tiles.html" target="_top" title="Tile.Tiles.html" xlink:actuate="onRequest" xlink:href="Tile.Tiles.html" xlink:show="new" xlink:title="Tile.Tiles.html" xlink:type="simple"><rect codeLine="27" fill="#FEFECE" filter="url(#fp08631gyw8vr)" height="40.1875" id="nz.ac.vuw.ecs.swen225.gp23.maze.Tile.Tiles" style="stroke: #A80036; stroke-width: 1.5;" width="198" x="7" y="400"/><ellipse cx="22" cy="420.0938" fill="#EB937F" rx="11" ry="11" style="stroke: #A80036; stroke-width: 1.0;"/><path d="M20.8594,420.8906 L20.8594,423.3906 L25.1875,423.3906 L25.1875,422.4688 Q25.1875,421.8594 25.4219,421.5938 Q25.6719,421.3281 26.0469,421.3281 Q26.4219,421.3281 26.6563,421.5938 Q26.8906,421.8594 26.8906,422.4688 L26.8906,425.0938 L18.8906,425.0938 Q18.2656,425.0938 18,424.8594 Q17.75,424.625 17.75,424.2344 Q17.75,423.8594 18.0156,423.625 Q18.2813,423.3906 18.8906,423.3906 L19.1563,423.3906 L19.1563,416.7344 L18.8906,416.7344 Q18.2656,416.7344 18,416.5 Q17.75,416.2656 17.75,415.875 Q17.75,415.5 18,415.2656 Q18.2656,415.0313 18.8906,415.0313 L26.5156,415.0313 L26.5156,417.625 Q26.5156,418.2344 26.2813,418.5 Q26.0625,418.75 25.6719,418.75 Q25.2969,418.75 25.0625,418.5 Q24.8281,418.2344 24.8281,417.625 L24.8281,416.7344 L20.8594,416.7344 L20.8594,419.1875 L22.3438,419.1875 Q22.3438,418.5313 22.4688,418.3438 Q22.7344,417.9375 23.2031,417.9375 Q23.5781,417.9375 23.8125,418.2031 Q24.0469,418.4531 24.0469,419.0625 L24.0469,421.0313 Q24.0469,421.5781 23.9219,421.7656 Q23.6563,422.1563 23.2031,422.1563 Q22.7344,422.1563 22.4688,421.75 Q22.3438,421.5625 22.3438,420.8906 L20.8594,420.8906 Z "/><text fill="#000000" font-family="sans-serif" font-size="14" lengthAdjust="spacingAndGlyphs" textLength="57" x="90.5" y="419.5332">Tile.Tiles</text><text fill="#000000" font-family="sans-serif" font-size="10" lengthAdjust="spacingAndGlyphs" textLength="166" x="36" y="432.9902">nz.ac.vuw.ecs.swen225.gp23.maze</text></a><!--MD5=[8e1d601e7de121a3c96d8bbf99566a32]
class nz.ac.vuw.ecs.swen225.gp23.maze.Tile.Directions--><a href="Tile.Directions.html" target="_top" title="Tile.Directions.html" xlink:actuate="onRequest" xlink:href="Tile.Directions.html" xlink:show="new" xlink:title="Tile.Directions.html" xlink:type="simple"><rect codeLine="28" fill="#FEFECE" filter="url(#fp08631gyw8vr)" height="40.1875" id="nz.ac.vuw.ecs.swen225.gp23.maze.Tile.Directions" style="stroke: #A80036; stroke-width: 1.5;" width="198" x="240" y="400"/><ellipse cx="255" cy="420.0938" fill="#EB937F" rx="11" ry="11" style="stroke: #A80036; stroke-width: 1.0;"/><path d="M253.8594,420.8906 L253.8594,423.3906 L258.1875,423.3906 L258.1875,422.4688 Q258.1875,421.8594 258.4219,421.5938 Q258.6719,421.3281 259.0469,421.3281 Q259.4219,421.3281 259.6563,421.5938 Q259.8906,421.8594 259.8906,422.4688 L259.8906,425.0938 L251.8906,425.0938 Q251.2656,425.0938 251,424.8594 Q250.75,424.625 250.75,424.2344 Q250.75,423.8594 251.0156,423.625 Q251.2813,423.3906 251.8906,423.3906 L252.1563,423.3906 L252.1563,416.7344 L251.8906,416.7344 Q251.2656,416.7344 251,416.5 Q250.75,416.2656 250.75,415.875 Q250.75,415.5 251,415.2656 Q251.2656,415.0313 251.8906,415.0313 L259.5156,415.0313 L259.5156,417.625 Q259.5156,418.2344 259.2813,418.5 Q259.0625,418.75 258.6719,418.75 Q258.2969,418.75 258.0625,418.5 Q257.8281,418.2344 257.8281,417.625 L257.8281,416.7344 L253.8594,416.7344 L253.8594,419.1875 L255.3438,419.1875 Q255.3438,418.5313 255.4688,418.3438 Q255.7344,417.9375 256.2031,417.9375 Q256.5781,417.9375 256.8125,418.2031 Q257.0469,418.4531 257.0469,419.0625 L257.0469,421.0313 Q257.0469,421.5781 256.9219,421.7656 Q256.6563,422.1563 256.2031,422.1563 Q255.7344,422.1563 255.4688,421.75 Q255.3438,421.5625 255.3438,420.8906 L253.8594,420.8906 Z "/><text fill="#000000" font-family="sans-serif" font-size="14" lengthAdjust="spacingAndGlyphs" textLength="90" x="307" y="419.5332">Tile.Directions</text><text fill="#000000" font-family="sans-serif" font-size="10" lengthAdjust="spacingAndGlyphs" textLength="166" x="269" y="432.9902">nz.ac.vuw.ecs.swen225.gp23.maze</text></a><!--MD5=[92867de6de5c412cfa2fb7bf9d2e030a]
reverse link nz.ac.vuw.ecs.swen225.gp23.maze.Tile to nz.ac.vuw.ecs.swen225.gp23.maze.Tile.Tiles--><path codeLine="30" d="M136.87,353.94 C128.2,372.2 120.59,388.26 115.08,399.85 " fill="none" id="nz.ac.vuw.ecs.swen225.gp23.maze.Tile-backto-nz.ac.vuw.ecs.swen225.gp23.maze.Tile.Tiles" style="stroke: #A80036; stroke-width: 1.0;"/><ellipse cx="139.9061" cy="347.5156" fill="#FFFFFF" rx="8" ry="8" style="stroke: #A80036; stroke-width: 1.0;"/><line style="stroke: #A80036; stroke-width: 1.0;" x1="136.4723" x2="143.34" y1="354.7411" y2="340.29"/><line style="stroke: #A80036; stroke-width: 1.0;" x1="132.6806" x2="147.1317" y1="344.0817" y2="350.9494"/><!--MD5=[3e61769364b16dcd0363afb87207c0a8]
reverse link nz.ac.vuw.ecs.swen225.gp23.maze.Tile to nz.ac.vuw.ecs.swen225.gp23.maze.Tile.Directions--><path codeLine="31" d="M307.87,353.94 C316.6,372.2 324.29,388.26 329.84,399.85 " fill="none" id="nz.ac.vuw.ecs.swen225.gp23.maze.Tile-backto-nz.ac.vuw.ecs.swen225.gp23.maze.Tile.Directions" style="stroke: #A80036; stroke-width: 1.0;"/><ellipse cx="304.7922" cy="347.5068" fill="#FFFFFF" rx="8" ry="8" style="stroke: #A80036; stroke-width: 1.0;"/><line style="stroke: #A80036; stroke-width: 1.0;" x1="308.2444" x2="301.34" y1="354.7236" y2="340.29"/><line style="stroke: #A80036; stroke-width: 1.0;" x1="297.5754" x2="312.009" y1="350.959" y2="344.0546"/><text fill="#888888" font-family="sans-serif" font-size="10" lengthAdjust="spacingAndGlyphs" textLength="190" x="124.5" y="463.5684">UMLDoclet 2.0.12, PlantUML 1.2020.16</text><!--MD5=[3275d157fc3781be1ba37e03c52dece9]
@startuml
    set namespaceSeparator none
    hide empty fields
    hide empty methods

    abstract class "<size:14>Tile\n<size:10>nz.ac.vuw.ecs.swen225.gp23.maze" as nz.ac.vuw.ecs.swen225.gp23.maze.Tile [[Tile.html]] {
        +isPassable: boolean
        +hasEntity: boolean
        +entityDirection: Directions
        +vertLoc: int
        +horizLoc: int
        +currentImage: String
        +defaultImage: String
        +type: Tiles
        +adjacentTiles: List<Tile>
        +Tile(Tiles)
        +setEntityPresent(String): void
        +setEntityDirection(Directions): void
        +setEntityAbsent(): void
        {abstract} +action(Player): boolean
        +getDirection(Directions): Tile
        +getHorizLoc(): int
        +setHorizLoc(int): void
        +getVertLoc(): int
        +setVertLoc(int): void
        +getCurrentImage(): String
    }
    enum "<size:14>Tile.Tiles\n<size:10>nz.ac.vuw.ecs.swen225.gp23.maze" as nz.ac.vuw.ecs.swen225.gp23.maze.Tile.Tiles [[Tile.Tiles.html]]
    enum "<size:14>Tile.Directions\n<size:10>nz.ac.vuw.ecs.swen225.gp23.maze" as nz.ac.vuw.ecs.swen225.gp23.maze.Tile.Directions [[Tile.Directions.html]]

    nz.ac.vuw.ecs.swen225.gp23.maze.Tile +- - nz.ac.vuw.ecs.swen225.gp23.maze.Tile.Tiles
    nz.ac.vuw.ecs.swen225.gp23.maze.Tile +- - nz.ac.vuw.ecs.swen225.gp23.maze.Tile.Directions

    center footer UMLDoclet 2.0.12, PlantUML 1.2020.16
@enduml

PlantUML version 1.2020.16(Mon Aug 24 08:20:43 NZST 2020)
(APACHE source distribution)
Java Runtime: Java(TM) SE Runtime Environment
JVM: Java HotSpot(TM) 64-Bit Server VM
Default Encoding: Cp1252
Language: en
Country: NZ
--></g></svg>