<?xml version="1.0" encoding="UTF-8" standalone="no"?><svg xmlns="http://www.w3.org/2000/svg" xmlns:xlink="http://www.w3.org/1999/xlink" contentScriptType="application/ecmascript" contentStyleType="text/css" height="324px" preserveAspectRatio="none" style="width:224px;height:324px;" version="1.1" viewBox="0 0 224 324" width="224px" zoomAndPan="magnify"><defs><filter height="300%" id="f15tl993om5s3j" width="300%" x="-1" y="-1"><feGaussianBlur result="blurOut" stdDeviation="2.0"/><feColorMatrix in="blurOut" result="blurOut2" type="matrix" values="0 0 0 0 0 0 0 0 0 0 0 0 0 0 0 0 0 0 .4 0"/><feOffset dx="4.0" dy="4.0" in="blurOut2" result="blurOut3"/><feBlend in="SourceGraphic" in2="blurOut3" mode="normal"/></filter></defs><g><!--MD5=[caf371069f8e6e8ecd12fc431a58d673]
class nz.ac.vuw.ecs.swen225.gp23.maze.Tile.Tiles--><a href="Tile.Tiles.html" target="_top" title="Tile.Tiles.html" xlink:actuate="onRequest" xlink:href="Tile.Tiles.html" xlink:show="new" xlink:title="Tile.Tiles.html" xlink:type="simple"><rect codeLine="5" fill="#FEFECE" filter="url(#f15tl993om5s3j)" height="158.875" id="nz.ac.vuw.ecs.swen225.gp23.maze.Tile.Tiles" style="stroke: #A80036; stroke-width: 1.5;" width="198" x="7" y="129"/><ellipse cx="22" cy="149.0938" fill="#EB937F" rx="11" ry="11" style="stroke: #A80036; stroke-width: 1.0;"/><path d="M20.8594,149.8906 L20.8594,152.3906 L25.1875,152.3906 L25.1875,151.4688 Q25.1875,150.8594 25.4219,150.5938 Q25.6719,150.3281 26.0469,150.3281 Q26.4219,150.3281 26.6563,150.5938 Q26.8906,150.8594 26.8906,151.4688 L26.8906,154.0938 L18.8906,154.0938 Q18.2656,154.0938 18,153.8594 Q17.75,153.625 17.75,153.2344 Q17.75,152.8594 18.0156,152.625 Q18.2813,152.3906 18.8906,152.3906 L19.1563,152.3906 L19.1563,145.7344 L18.8906,145.7344 Q18.2656,145.7344 18,145.5 Q17.75,145.2656 17.75,144.875 Q17.75,144.5 18,144.2656 Q18.2656,144.0313 18.8906,144.0313 L26.5156,144.0313 L26.5156,146.625 Q26.5156,147.2344 26.2813,147.5 Q26.0625,147.75 25.6719,147.75 Q25.2969,147.75 25.0625,147.5 Q24.8281,147.2344 24.8281,146.625 L24.8281,145.7344 L20.8594,145.7344 L20.8594,148.1875 L22.3438,148.1875 Q22.3438,147.5313 22.4688,147.3438 Q22.7344,146.9375 23.2031,146.9375 Q23.5781,146.9375 23.8125,147.2031 Q24.0469,147.4531 24.0469,148.0625 L24.0469,150.0313 Q24.0469,150.5781 23.9219,150.7656 Q23.6563,151.1563 23.2031,151.1563 Q22.7344,151.1563 22.4688,150.75 Q22.3438,150.5625 22.3438,149.8906 L20.8594,149.8906 Z "/><text fill="#000000" font-family="sans-serif" font-size="14" lengthAdjust="spacingAndGlyphs" textLength="57" x="90.5" y="148.5332">Tile.Tiles</text><text fill="#000000" font-family="sans-serif" font-size="10" lengthAdjust="spacingAndGlyphs" textLength="166" x="36" y="161.9902">nz.ac.vuw.ecs.swen225.gp23.maze</text><line style="stroke: #A80036; stroke-width: 1.5;" x1="8" x2="204" y1="169.1875" y2="169.1875"/><ellipse cx="18" cy="180.1875" fill="none" rx="3" ry="3" style="stroke: #038048; stroke-width: 1.0;"/><text fill="#000000" font-family="sans-serif" font-size="11" lengthAdjust="spacingAndGlyphs" text-decoration="underline" textLength="24" x="27" y="184.6064">Floor</text><ellipse cx="18" cy="194.0234" fill="none" rx="3" ry="3" style="stroke: #038048; stroke-width: 1.0;"/><text fill="#000000" font-family="sans-serif" font-size="11" lengthAdjust="spacingAndGlyphs" text-decoration="underline" textLength="20" x="27" y="198.4424">Wall</text><ellipse cx="18" cy="207.8594" fill="none" rx="3" ry="3" style="stroke: #038048; stroke-width: 1.0;"/><text fill="#000000" font-family="sans-serif" font-size="11" lengthAdjust="spacingAndGlyphs" text-decoration="underline" textLength="58" x="27" y="212.2783">LockedDoor</text><ellipse cx="18" cy="221.6953" fill="none" rx="3" ry="3" style="stroke: #038048; stroke-width: 1.0;"/><text fill="#000000" font-family="sans-serif" font-size="11" lengthAdjust="spacingAndGlyphs" text-decoration="underline" textLength="19" x="27" y="226.1143">Key</text><ellipse cx="18" cy="235.5313" fill="none" rx="3" ry="3" style="stroke: #038048; stroke-width: 1.0;"/><text fill="#000000" font-family="sans-serif" font-size="11" lengthAdjust="spacingAndGlyphs" text-decoration="underline" textLength="17" x="27" y="239.9502">Exit</text><ellipse cx="18" cy="249.3672" fill="none" rx="3" ry="3" style="stroke: #038048; stroke-width: 1.0;"/><text fill="#000000" font-family="sans-serif" font-size="11" lengthAdjust="spacingAndGlyphs" text-decoration="underline" textLength="40" x="27" y="253.7861">ExitLock</text><ellipse cx="18" cy="263.2031" fill="none" rx="3" ry="3" style="stroke: #038048; stroke-width: 1.0;"/><text fill="#000000" font-family="sans-serif" font-size="11" lengthAdjust="spacingAndGlyphs" text-decoration="underline" textLength="67" x="27" y="267.6221">ComputerChip</text><ellipse cx="18" cy="277.0391" fill="none" rx="3" ry="3" style="stroke: #038048; stroke-width: 1.0;"/><text fill="#000000" font-family="sans-serif" font-size="11" lengthAdjust="spacingAndGlyphs" text-decoration="underline" textLength="18" x="27" y="281.458">Hint</text></a><!--MD5=[6e7a21acf924966514c6cad752e41039]
class nz.ac.vuw.ecs.swen225.gp23.maze.Tile--><a href="Tile.html" target="_top" title="Tile.html" xlink:actuate="onRequest" xlink:href="Tile.html" xlink:show="new" xlink:title="Tile.html" xlink:type="simple"><rect codeLine="16" fill="#FEFECE" filter="url(#f15tl993om5s3j)" height="62.0234" id="nz.ac.vuw.ecs.swen225.gp23.maze.Tile" style="stroke: #A80036; stroke-width: 1.5;" width="198" x="7" y="7"/><ellipse cx="22" cy="27.0938" fill="#A9DCDF" rx="11" ry="11" style="stroke: #A80036; stroke-width: 1.0;"/><path d="M24.1875,28.8594 L20.0469,28.8594 L19.625,29.8906 L20.0469,29.8906 Q20.6563,29.8906 20.9219,30.125 Q21.1875,30.3594 21.1875,30.75 Q21.1875,31.125 20.9219,31.3594 Q20.6563,31.5938 20.0469,31.5938 L17.75,31.5938 Q17.1406,31.5938 16.8906,31.3594 Q16.625,31.125 16.625,30.7344 Q16.625,30.3594 16.9063,30.125 Q17.1719,29.875 17.7969,29.8906 L20.4688,23.2344 L19.3594,23.2344 Q18.75,23.2344 18.4844,23 Q18.2188,22.7656 18.2188,22.375 Q18.2188,22 18.4844,21.7656 Q18.75,21.5313 19.3594,21.5313 L23.0313,21.5313 L26.4219,29.8906 Q27.0156,29.8906 27.2031,30.0313 Q27.5938,30.2969 27.5938,30.75 Q27.5938,31.125 27.3281,31.3594 Q27.0781,31.5938 26.4688,31.5938 L24.1719,31.5938 Q23.5625,31.5938 23.2969,31.3594 Q23.0313,31.125 23.0313,30.7344 Q23.0313,30.3594 23.2969,30.125 Q23.5625,29.8906 24.1719,29.8906 L24.5938,29.8906 L24.1875,28.8594 Z M23.4688,27.1563 L22.1094,23.7813 L20.7344,27.1563 L23.4688,27.1563 Z "/><text fill="#000000" font-family="sans-serif" font-size="14" font-style="italic" lengthAdjust="spacingAndGlyphs" textLength="23" x="107.5" y="26.5332">Tile</text><text fill="#000000" font-family="sans-serif" font-size="10" font-style="italic" lengthAdjust="spacingAndGlyphs" textLength="166" x="36" y="39.9902">nz.ac.vuw.ecs.swen225.gp23.maze</text><line style="stroke: #A80036; stroke-width: 1.5;" x1="8" x2="204" y1="47.1875" y2="47.1875"/><ellipse cx="18" cy="58.1875" fill="#84BE84" rx="3" ry="3" style="stroke: #038048; stroke-width: 1.0;"/><text fill="#000000" font-family="sans-serif" font-size="11" font-style="italic" lengthAdjust="spacingAndGlyphs" textLength="115" x="27" y="62.6064">action(Player): boolean</text></a><!--MD5=[92867de6de5c412cfa2fb7bf9d2e030a]
reverse link nz.ac.vuw.ecs.swen225.gp23.maze.Tile to nz.ac.vuw.ecs.swen225.gp23.maze.Tile.Tiles--><path codeLine="20" d="M106,84.32 C106,98.05 106,113.56 106,128.82 " fill="none" id="nz.ac.vuw.ecs.swen225.gp23.maze.Tile-backto-nz.ac.vuw.ecs.swen225.gp23.maze.Tile.Tiles" style="stroke: #A80036; stroke-width: 1.0;"/><ellipse cx="106" cy="77.12" fill="#FFFFFF" rx="8" ry="8" style="stroke: #A80036; stroke-width: 1.0;"/><line style="stroke: #A80036; stroke-width: 1.0;" x1="106" x2="106" y1="85.12" y2="69.12"/><line style="stroke: #A80036; stroke-width: 1.0;" x1="98" x2="114" y1="77.12" y2="77.12"/><text fill="#888888" font-family="sans-serif" font-size="10" lengthAdjust="spacingAndGlyphs" textLength="190" x="8" y="311.2559">UMLDoclet 2.0.12, PlantUML 1.2020.16</text><!--MD5=[401dab4a8eb96c243937192c17b4b5a8]
@startuml
    set namespaceSeparator none
    hide empty fields
    hide empty methods

    enum "<size:14>Tile.Tiles\n<size:10>nz.ac.vuw.ecs.swen225.gp23.maze" as nz.ac.vuw.ecs.swen225.gp23.maze.Tile.Tiles [[Tile.Tiles.html]] {
        {static} +Floor
        {static} +Wall
        {static} +LockedDoor
        {static} +Key
        {static} +Exit
        {static} +ExitLock
        {static} +ComputerChip
        {static} +Hint
    }

    abstract class "<size:14>Tile\n<size:10>nz.ac.vuw.ecs.swen225.gp23.maze" as nz.ac.vuw.ecs.swen225.gp23.maze.Tile [[Tile.html]] {
        {abstract} +action(Player): boolean
    }

    nz.ac.vuw.ecs.swen225.gp23.maze.Tile +- - nz.ac.vuw.ecs.swen225.gp23.maze.Tile.Tiles

    center footer UMLDoclet 2.0.12, PlantUML 1.2020.16
@enduml

PlantUML version 1.2020.16(Mon Aug 24 08:20:43 NZST 2020)
(APACHE source distribution)
Java Runtime: Java(TM) SE Runtime Environment
JVM: Java HotSpot(TM) 64-Bit Server VM
Default Encoding: Cp1252
Language: en
Country: NZ
--></g></svg>