<?xml version="1.0" encoding="UTF-8" standalone="no"?><svg xmlns="http://www.w3.org/2000/svg" xmlns:xlink="http://www.w3.org/1999/xlink" contentScriptType="application/ecmascript" contentStyleType="text/css" height="260px" preserveAspectRatio="none" style="width:319px;height:260px;" version="1.1" viewBox="0 0 319 260" width="319px" zoomAndPan="magnify"><defs><filter height="300%" id="f17ht27ydqbrwx" width="300%" x="-1" y="-1"><feGaussianBlur result="blurOut" stdDeviation="2.0"/><feColorMatrix in="blurOut" result="blurOut2" type="matrix" values="0 0 0 0 0 0 0 0 0 0 0 0 0 0 0 0 0 0 .4 0"/><feOffset dx="4.0" dy="4.0" in="blurOut2" result="blurOut3"/><feBlend in="SourceGraphic" in2="blurOut3" mode="normal"/></filter></defs><g><!--MD5=[c8cdfb3c6e609dba7e410432618e35a6]
cluster nz.ac.vuw.ecs.swen225.gp23.recnplay--><polygon fill="#FFFFFF" filter="url(#f17ht27ydqbrwx)" points="16,6,287,6,294,29.6094,297,29.6094,297,231,16,231,16,6" style="stroke: #000000; stroke-width: 1.5;"/><line style="stroke: #000000; stroke-width: 1.5;" x1="16" x2="294" y1="29.6094" y2="29.6094"/><text fill="#000000" font-family="sans-serif" font-size="14" font-weight="bold" lengthAdjust="spacingAndGlyphs" textLength="265" x="20" y="22.5332">nz.ac.vuw.ecs.swen225.gp23.recnplay</text><!--MD5=[aa7071b680f4ac1d6eb8836de4f0a186]
class nz.ac.vuw.ecs.swen225.gp23.recnplay.RecordReplay--><a href="RecordReplay.html" target="_top" title="RecordReplay.html" xlink:actuate="onRequest" xlink:href="RecordReplay.html" xlink:show="new" xlink:title="RecordReplay.html" xlink:type="simple"><rect codeLine="3" fill="#FEFECE" filter="url(#f17ht27ydqbrwx)" height="172.5234" id="nz.ac.vuw.ecs.swen225.gp23.recnplay.RecordReplay" style="stroke: #A80036; stroke-width: 1.5;" width="246" x="33" y="42"/><ellipse cx="112.75" cy="58" fill="#ADD1B2" rx="11" ry="11" style="stroke: #A80036; stroke-width: 1.0;"/><path d="M115.5156,53.875 Q115.6719,53.6563 115.8594,53.5469 Q116.0469,53.4375 116.2656,53.4375 Q116.6406,53.4375 116.875,53.7031 Q117.1094,53.9531 117.1094,54.5625 L117.1094,56.0156 Q117.1094,56.625 116.875,56.8906 Q116.6406,57.1563 116.2656,57.1563 Q115.9219,57.1563 115.7188,56.9531 Q115.5156,56.7656 115.4063,56.25 Q115.3594,55.8906 115.1719,55.7031 Q114.8438,55.3281 114.2344,55.1094 Q113.625,54.8906 113,54.8906 Q112.2344,54.8906 111.5938,55.2188 Q110.9688,55.5469 110.4688,56.2969 Q109.9844,57.0469 109.9844,58.0781 L109.9844,59.1719 Q109.9844,60.4063 110.875,61.2344 Q111.7656,62.0469 113.3594,62.0469 Q114.2969,62.0469 114.9531,61.7969 Q115.3438,61.6406 115.7656,61.2031 Q116.0313,60.9375 116.1719,60.8594 Q116.3281,60.7813 116.5313,60.7813 Q116.8594,60.7813 117.1094,61.0469 Q117.375,61.2969 117.375,61.6406 Q117.375,61.9844 117.0313,62.3906 Q116.5313,62.9688 115.7344,63.2969 Q114.6563,63.75 113.3594,63.75 Q111.8438,63.75 110.6406,63.125 Q109.6563,62.625 108.9688,61.5625 Q108.2813,60.4844 108.2813,59.2031 L108.2813,58.0469 Q108.2813,56.7188 108.8906,55.5781 Q109.5156,54.4219 110.6094,53.8125 Q111.7031,53.1875 112.9375,53.1875 Q113.6719,53.1875 114.3125,53.3594 Q114.9688,53.5156 115.5156,53.875 Z "/><text fill="#000000" font-family="sans-serif" font-size="12" lengthAdjust="spacingAndGlyphs" textLength="78" x="133.25" y="62.9102">RecordReplay</text><line style="stroke: #A80036; stroke-width: 1.5;" x1="34" x2="278" y1="74" y2="74"/><line style="stroke: #A80036; stroke-width: 1.5;" x1="34" x2="278" y1="82" y2="82"/><ellipse cx="44" cy="93" fill="#84BE84" rx="3" ry="3" style="stroke: #038048; stroke-width: 1.0;"/><text fill="#000000" font-family="sans-serif" font-size="11" lengthAdjust="spacingAndGlyphs" text-decoration="underline" textLength="143" x="53" y="97.4189">newSave(Game, String): void</text><ellipse cx="44" cy="106.8359" fill="#84BE84" rx="3" ry="3" style="stroke: #038048; stroke-width: 1.0;"/><text fill="#000000" font-family="sans-serif" font-size="11" lengthAdjust="spacingAndGlyphs" text-decoration="underline" textLength="132" x="53" y="111.2549">addMoves(Directions): void</text><ellipse cx="44" cy="120.6719" fill="#84BE84" rx="3" ry="3" style="stroke: #038048; stroke-width: 1.0;"/><text fill="#000000" font-family="sans-serif" font-size="11" lengthAdjust="spacingAndGlyphs" text-decoration="underline" textLength="135" x="53" y="125.0908">saveRecording(Game): void</text><ellipse cx="44" cy="134.5078" fill="#84BE84" rx="3" ry="3" style="stroke: #038048; stroke-width: 1.0;"/><text fill="#000000" font-family="sans-serif" font-size="11" lengthAdjust="spacingAndGlyphs" text-decoration="underline" textLength="101" x="53" y="138.9268">endRecording(): void</text><ellipse cx="44" cy="148.3438" fill="#84BE84" rx="3" ry="3" style="stroke: #038048; stroke-width: 1.0;"/><text fill="#000000" font-family="sans-serif" font-size="11" lengthAdjust="spacingAndGlyphs" text-decoration="underline" textLength="212" x="53" y="152.7627">loadRecord(String, GraphicalInterface): void</text><ellipse cx="44" cy="162.1797" fill="#84BE84" rx="3" ry="3" style="stroke: #038048; stroke-width: 1.0;"/><text fill="#000000" font-family="sans-serif" font-size="11" lengthAdjust="spacingAndGlyphs" text-decoration="underline" textLength="220" x="53" y="166.5986">iterateReplay(Game, GraphicalInterface): void</text><ellipse cx="44" cy="176.0156" fill="#84BE84" rx="3" ry="3" style="stroke: #038048; stroke-width: 1.0;"/><text fill="#000000" font-family="sans-serif" font-size="11" lengthAdjust="spacingAndGlyphs" text-decoration="underline" textLength="206" x="53" y="180.4346">runReplay(Game, GraphicalInterface): void</text><ellipse cx="44" cy="189.8516" fill="#84BE84" rx="3" ry="3" style="stroke: #038048; stroke-width: 1.0;"/><text fill="#000000" font-family="sans-serif" font-size="11" lengthAdjust="spacingAndGlyphs" text-decoration="underline" textLength="96" x="53" y="194.2705">setDelay(long): void</text><ellipse cx="44" cy="203.6875" fill="#84BE84" rx="3" ry="3" style="stroke: #038048; stroke-width: 1.0;"/><text fill="#000000" font-family="sans-serif" font-size="11" lengthAdjust="spacingAndGlyphs" text-decoration="underline" textLength="152" x="53" y="208.1064">getIsGameRecording(): boolean</text></a><text fill="#888888" font-family="sans-serif" font-size="10" lengthAdjust="spacingAndGlyphs" textLength="190" x="55.5" y="247.3809">UMLDoclet 2.0.12, PlantUML 1.2020.16</text><!--MD5=[cb4cde2e32283fb4cabe9678351f7414]
@startuml
    namespace nz.ac.vuw.ecs.swen225.gp23.recnplay {

        class RecordReplay [[RecordReplay.html]] {
            {static} +newSave(Game, String): void
            {static} +addMoves(Directions): void
            {static} +saveRecording(Game): void
            {static} +endRecording(): void
            {static} +loadRecord(String, GraphicalInterface): void
            {static} +iterateReplay(Game, GraphicalInterface): void
            {static} +runReplay(Game, GraphicalInterface): void
            {static} +setDelay(long): void
            {static} +getIsGameRecording(): boolean
        }

    }

    center footer UMLDoclet 2.0.12, PlantUML 1.2020.16
@enduml

PlantUML version 1.2020.16(Mon Aug 24 08:20:43 NZST 2020)
(APACHE source distribution)
Java Runtime: Java(TM) SE Runtime Environment
JVM: Java HotSpot(TM) 64-Bit Server VM
Default Encoding: Cp1252
Language: en
Country: NZ
--></g></svg>